<svg width="278" height="123" viewBox="0 0 278 123" fill="none" xmlns="http://www.w3.org/2000/svg">
<g opacity="0.1">
<path d="M266.141 19.8293C265.116 19.8293 264.237 20.6978 264.237 21.7109C264.237 22.7241 265.116 23.5925 266.141 23.5925C267.165 23.5925 268.044 22.7241 268.044 21.7109C268.044 20.6978 267.165 19.8293 266.141 19.8293Z" fill="url(#paint0_linear_409_156629)"/>
<path d="M261.163 9.98703C260.138 9.98703 259.259 10.8555 259.259 11.8687C259.259 12.8818 260.138 13.7503 261.163 13.7503C262.188 13.7503 263.066 12.8818 263.066 11.8687C263.066 10.7107 262.188 9.98703 261.163 9.98703Z" fill="url(#paint1_linear_409_156629)"/>
<path d="M276.097 39.3692C275.072 39.3692 274.193 40.2376 274.193 41.2508C274.193 42.264 275.072 43.1324 276.097 43.1324C277.122 43.1324 278 42.264 278 41.2508C278 40.2376 277.122 39.3692 276.097 39.3692Z" fill="url(#paint2_linear_409_156629)"/>
<path d="M266.141 39.3692C265.116 39.3692 264.237 40.2376 264.237 41.2508C264.237 42.264 265.116 43.1324 266.141 43.1324C267.165 43.1324 268.044 42.264 268.044 41.2508C268.044 40.2376 267.165 39.3692 266.141 39.3692Z" fill="url(#paint3_linear_409_156629)"/>
<path d="M271.119 29.5269C270.094 29.5269 269.215 30.3953 269.215 31.4085C269.215 32.4217 270.094 33.2901 271.119 33.2901C272.144 33.2901 273.022 32.4217 273.022 31.4085C273.022 30.3953 272.144 29.5269 271.119 29.5269Z" fill="url(#paint4_linear_409_156629)"/>
<path d="M276.097 62.817C277.148 62.817 278 61.9745 278 60.9354C278 59.8962 277.148 59.0537 276.097 59.0537C275.045 59.0537 274.193 59.8962 274.193 60.9354C274.193 61.9745 275.045 62.817 276.097 62.817Z" fill="url(#paint5_linear_409_156629)"/>
<path d="M266.141 59.0537C265.116 59.0537 264.237 59.9222 264.237 60.9354C264.237 61.9485 265.116 62.817 266.141 62.817C267.165 62.817 268.044 61.9485 268.044 60.9354C268.044 59.9222 267.165 59.0537 266.141 59.0537Z" fill="url(#paint6_linear_409_156629)"/>
<path d="M269.215 51.0931C269.215 52.1062 270.094 52.9747 271.119 52.9747C272.144 52.9747 273.022 52.1062 273.022 51.0931C273.022 50.0799 272.144 49.2115 271.119 49.2115C270.094 49.2115 269.215 50.0799 269.215 51.0931Z" fill="url(#paint7_linear_409_156629)"/>
<path d="M244.472 1.88162C244.472 2.8948 245.35 3.76323 246.375 3.76323C247.4 3.76323 248.278 2.8948 248.278 1.88162C248.278 1.4474 248.132 1.01318 247.693 0.578961C247.254 0.434221 246.668 0.14474 246.229 0C245.204 0.14474 244.472 1.01318 244.472 1.88162Z" fill="url(#paint8_linear_409_156629)"/>
<path d="M246.229 19.8293C245.204 19.8293 244.325 20.6978 244.325 21.7109C244.325 22.7241 245.204 23.5925 246.229 23.5925C247.254 23.5925 248.132 22.7241 248.132 21.7109C248.132 20.6978 247.254 19.8293 246.229 19.8293Z" fill="url(#paint9_linear_409_156629)"/>
<path d="M251.207 13.6055C252.232 13.6055 253.11 12.7371 253.11 11.7239C253.11 10.7107 252.232 9.8423 251.207 9.8423C250.182 9.8423 249.303 10.7107 249.303 11.7239C249.45 12.7371 250.182 13.6055 251.207 13.6055Z" fill="url(#paint10_linear_409_156629)"/>
<path d="M241.251 9.98703C240.226 9.98703 239.347 10.8555 239.347 11.8687C239.347 12.8818 240.226 13.7503 241.251 13.7503C242.276 13.7503 243.154 12.8818 243.154 11.8687C243.154 10.7107 242.276 9.98703 241.251 9.98703Z" fill="url(#paint11_linear_409_156629)"/>
<path d="M256.185 39.3692C255.16 39.3692 254.281 40.2376 254.281 41.2508C254.281 42.264 255.16 43.1324 256.185 43.1324C257.21 43.1324 258.088 42.264 258.088 41.2508C258.088 40.2376 257.21 39.3692 256.185 39.3692Z" fill="url(#paint12_linear_409_156629)"/>
<path d="M246.229 39.3692C245.204 39.3692 244.325 40.2376 244.325 41.2508C244.325 42.264 245.204 43.1324 246.229 43.1324C247.254 43.1324 248.132 42.264 248.132 41.2508C248.132 40.2376 247.254 39.3692 246.229 39.3692Z" fill="url(#paint13_linear_409_156629)"/>
<path d="M261.163 33.2901C262.188 33.2901 263.066 32.4217 263.066 31.4085C263.066 30.3953 262.188 29.5269 261.163 29.5269C260.138 29.5269 259.259 30.3953 259.259 31.4085C259.259 32.4217 260.138 33.2901 261.163 33.2901Z" fill="url(#paint14_linear_409_156629)"/>
<path d="M251.207 33.2901C252.258 33.2901 253.11 32.4477 253.11 31.4085C253.11 30.3693 252.258 29.5269 251.207 29.5269C250.156 29.5269 249.303 30.3693 249.303 31.4085C249.303 32.4477 250.156 33.2901 251.207 33.2901Z" fill="url(#paint15_linear_409_156629)"/>
<path d="M256.185 23.4478C257.21 23.4478 258.088 22.5794 258.088 21.5662C258.088 20.553 257.21 19.6846 256.185 19.6846C255.16 19.6846 254.281 20.553 254.281 21.5662C254.281 22.5794 255.16 23.4478 256.185 23.4478Z" fill="url(#paint16_linear_409_156629)"/>
<path d="M256.185 62.817C257.236 62.817 258.088 61.9745 258.088 60.9354C258.088 59.8962 257.236 59.0537 256.185 59.0537C255.133 59.0537 254.281 59.8962 254.281 60.9354C254.281 61.9745 255.133 62.817 256.185 62.817Z" fill="url(#paint17_linear_409_156629)"/>
<path d="M246.229 62.817C247.28 62.817 248.132 61.9745 248.132 60.9354C248.132 59.8962 247.28 59.0537 246.229 59.0537C245.177 59.0537 244.325 59.8962 244.325 60.9354C244.325 61.9745 245.177 62.817 246.229 62.817Z" fill="url(#paint18_linear_409_156629)"/>
<path d="M261.163 52.9747C262.188 52.9747 263.066 52.1062 263.066 51.0931C263.066 50.0799 262.188 49.2115 261.163 49.2115C260.138 49.2115 259.259 50.0799 259.259 51.0931C259.259 52.1062 260.138 52.9747 261.163 52.9747Z" fill="url(#paint19_linear_409_156629)"/>
<path d="M251.207 52.9747C252.258 52.9747 253.11 52.1323 253.11 51.0931C253.11 50.0539 252.258 49.2115 251.207 49.2115C250.156 49.2115 249.303 50.0539 249.303 51.0931C249.303 52.1323 250.156 52.9747 251.207 52.9747Z" fill="url(#paint20_linear_409_156629)"/>
<path d="M236.273 3.76323C237.324 3.76323 238.176 2.92081 238.176 1.88162C238.176 0.842432 237.324 0 236.273 0C235.222 0 234.369 0.842432 234.369 1.88162C234.369 2.92081 235.222 3.76323 236.273 3.76323Z" fill="url(#paint21_linear_409_156629)"/>
<path d="M226.317 0.144737C225.292 0.144737 224.413 1.01318 224.413 2.02636C224.413 3.03953 225.292 3.90798 226.317 3.90798C227.342 3.90798 228.22 3.03953 228.22 2.02636C228.22 0.86844 227.488 0.144737 226.317 0.144737Z" fill="url(#paint22_linear_409_156629)"/>
<path d="M236.273 19.8293C235.248 19.8293 234.369 20.6978 234.369 21.7109C234.369 22.7241 235.248 23.5925 236.273 23.5925C237.298 23.5925 238.176 22.7241 238.176 21.7109C238.176 20.6978 237.444 19.8293 236.273 19.8293Z" fill="url(#paint23_linear_409_156629)"/>
<path d="M226.317 19.8293C225.292 19.8293 224.413 20.6978 224.413 21.7109C224.413 22.7241 225.292 23.5925 226.317 23.5925C227.342 23.5925 228.22 22.7241 228.22 21.7109C228.22 20.6978 227.488 19.8293 226.317 19.8293Z" fill="url(#paint24_linear_409_156629)"/>
<path d="M233.198 11.7239C233.198 10.7107 232.32 9.8423 231.295 9.8423C230.27 9.8423 229.391 10.7107 229.391 11.7239C229.391 12.7371 230.27 13.6055 231.295 13.6055C232.466 13.6055 233.198 12.7371 233.198 11.7239Z" fill="url(#paint25_linear_409_156629)"/>
<path d="M236.273 39.3692C235.248 39.3692 234.369 40.2376 234.369 41.2508C234.369 42.264 235.248 43.1324 236.273 43.1324C237.298 43.1324 238.176 42.264 238.176 41.2508C238.176 40.2376 237.444 39.3692 236.273 39.3692Z" fill="url(#paint26_linear_409_156629)"/>
<path d="M226.317 39.3692C225.292 39.3692 224.413 40.2376 224.413 41.2508C224.413 42.264 225.292 43.1324 226.317 43.1324C227.342 43.1324 228.22 42.264 228.22 41.2508C228.22 40.2376 227.488 39.3692 226.317 39.3692Z" fill="url(#paint27_linear_409_156629)"/>
<path d="M241.251 33.2901C242.276 33.2901 243.154 32.4217 243.154 31.4085C243.154 30.3953 242.276 29.5269 241.251 29.5269C240.226 29.5269 239.347 30.3953 239.347 31.4085C239.347 32.4217 240.226 33.2901 241.251 33.2901Z" fill="url(#paint28_linear_409_156629)"/>
<path d="M231.295 33.2901C232.346 33.2901 233.198 32.4477 233.198 31.4085C233.198 30.3693 232.346 29.5269 231.295 29.5269C230.244 29.5269 229.391 30.3693 229.391 31.4085C229.391 32.4477 230.244 33.2901 231.295 33.2901Z" fill="url(#paint29_linear_409_156629)"/>
<path d="M236.273 62.817C237.324 62.817 238.176 61.9745 238.176 60.9354C238.176 59.8962 237.324 59.0537 236.273 59.0537C235.222 59.0537 234.369 59.8962 234.369 60.9354C234.369 61.9745 235.222 62.817 236.273 62.817Z" fill="url(#paint30_linear_409_156629)"/>
<path d="M226.317 59.0537C225.292 59.0537 224.413 59.9222 224.413 60.9354C224.413 61.9485 225.292 62.817 226.317 62.817C227.342 62.817 228.22 61.9485 228.22 60.9354C228.22 59.9222 227.488 59.0537 226.317 59.0537Z" fill="url(#paint31_linear_409_156629)"/>
<path d="M241.251 52.9747C242.276 52.9747 243.154 52.1062 243.154 51.0931C243.154 50.0799 242.276 49.2115 241.251 49.2115C240.226 49.2115 239.347 50.0799 239.347 51.0931C239.347 52.1062 240.226 52.9747 241.251 52.9747Z" fill="url(#paint32_linear_409_156629)"/>
<path d="M231.295 52.9747C232.346 52.9747 233.198 52.1323 233.198 51.0931C233.198 50.0539 232.346 49.2115 231.295 49.2115C230.244 49.2115 229.391 50.0539 229.391 51.0931C229.391 52.1323 230.244 52.9747 231.295 52.9747Z" fill="url(#paint33_linear_409_156629)"/>
<path d="M216.507 19.8293C215.482 19.8293 214.604 20.6978 214.604 21.7109C214.604 22.7241 215.482 23.5925 216.507 23.5925C217.532 23.5925 218.411 22.7241 218.411 21.7109C218.411 20.6978 217.532 19.8293 216.507 19.8293Z" fill="url(#paint34_linear_409_156629)"/>
<path d="M219.582 11.7239C219.582 12.7371 220.46 13.6055 221.485 13.6055C222.51 13.6055 223.389 12.7371 223.389 11.7239C223.389 10.7107 222.51 9.8423 221.485 9.8423C220.46 9.8423 219.582 10.7107 219.582 11.7239Z" fill="url(#paint35_linear_409_156629)"/>
<path d="M211.529 13.6055C212.554 13.6055 213.432 12.7371 213.432 11.7239C213.432 11.0002 212.993 10.2765 212.261 9.98703C211.529 11.0002 210.797 11.8686 210.212 12.8818C210.358 13.4608 210.944 13.6055 211.529 13.6055Z" fill="url(#paint36_linear_409_156629)"/>
<path d="M216.507 39.3692C215.482 39.3692 214.604 40.2376 214.604 41.2508C214.604 42.264 215.482 43.1324 216.507 43.1324C217.532 43.1324 218.411 42.264 218.411 41.2508C218.264 40.2376 217.532 39.3692 216.507 39.3692Z" fill="url(#paint37_linear_409_156629)"/>
<path d="M206.551 39.3692C205.526 39.3692 204.648 40.2376 204.648 41.2508C204.648 42.264 205.526 43.1324 206.551 43.1324C207.576 43.1324 208.455 42.264 208.455 41.2508C208.308 40.2376 207.576 39.3692 206.551 39.3692Z" fill="url(#paint38_linear_409_156629)"/>
<path d="M221.485 33.2901C222.536 33.2901 223.389 32.4477 223.389 31.4085C223.389 30.3693 222.536 29.5269 221.485 29.5269C220.434 29.5269 219.582 30.3693 219.582 31.4085C219.582 32.4477 220.434 33.2901 221.485 33.2901Z" fill="url(#paint39_linear_409_156629)"/>
<path d="M211.529 33.2901C212.554 33.2901 213.432 32.4217 213.432 31.4085C213.432 30.3953 212.554 29.5269 211.529 29.5269C210.504 29.5269 209.626 30.3953 209.626 31.4085C209.626 32.4217 210.358 33.2901 211.529 33.2901Z" fill="url(#paint40_linear_409_156629)"/>
<path d="M204.794 22.2899C205.087 23.0136 205.819 23.4478 206.551 23.4478C207.576 23.4478 208.455 22.5794 208.455 21.5662C208.455 20.553 207.576 19.6846 206.551 19.6846C206.405 19.6846 206.258 19.6846 206.112 19.8293C205.673 20.6978 205.233 21.5662 204.794 22.2899Z" fill="url(#paint41_linear_409_156629)"/>
<path d="M216.507 59.0537C215.482 59.0537 214.604 59.9222 214.604 60.9354C214.604 61.9485 215.482 62.817 216.507 62.817C217.532 62.817 218.411 61.9485 218.411 60.9354C218.264 59.9222 217.532 59.0537 216.507 59.0537Z" fill="url(#paint42_linear_409_156629)"/>
<path d="M206.551 62.817C207.602 62.817 208.455 61.9745 208.455 60.9354C208.455 59.8962 207.602 59.0537 206.551 59.0537C205.5 59.0537 204.648 59.8962 204.648 60.9354C204.648 61.9745 205.5 62.817 206.551 62.817Z" fill="url(#paint43_linear_409_156629)"/>
<path d="M221.485 52.9747C222.536 52.9747 223.389 52.1323 223.389 51.0931C223.389 50.0539 222.536 49.2115 221.485 49.2115C220.434 49.2115 219.582 50.0539 219.582 51.0931C219.582 52.1323 220.434 52.9747 221.485 52.9747Z" fill="url(#paint44_linear_409_156629)"/>
<path d="M209.626 51.0931C209.626 52.1062 210.504 52.9747 211.529 52.9747C212.554 52.9747 213.432 52.1062 213.432 51.0931C213.432 50.0799 212.554 49.2115 211.529 49.2115C210.358 49.2115 209.626 50.0799 209.626 51.0931Z" fill="url(#paint45_linear_409_156629)"/>
<path d="M196.595 39.3692C195.57 39.3692 194.692 40.2376 194.692 41.2508C194.692 42.264 195.57 43.1324 196.595 43.1324C197.62 43.1324 198.499 42.264 198.499 41.2508C198.352 40.2376 197.62 39.3692 196.595 39.3692Z" fill="url(#paint46_linear_409_156629)"/>
<path d="M201.573 33.2901C202.598 33.2901 203.477 32.4217 203.477 31.4085C203.477 30.3953 202.598 29.5269 201.573 29.5269C201.427 29.5269 201.134 29.5269 200.988 29.6716C200.988 29.8164 200.841 29.9611 200.841 30.1058C200.548 30.6848 200.109 31.2638 199.816 31.8427C199.963 32.7112 200.695 33.2901 201.573 33.2901Z" fill="url(#paint47_linear_409_156629)"/>
<path d="M196.595 62.817C197.646 62.817 198.499 61.9745 198.499 60.9354C198.499 59.8962 197.646 59.0537 196.595 59.0537C195.544 59.0537 194.692 59.8962 194.692 60.9354C194.692 61.9745 195.544 62.817 196.595 62.817Z" fill="url(#paint48_linear_409_156629)"/>
<path d="M186.639 62.817C187.69 62.817 188.543 61.9745 188.543 60.9354C188.543 59.8962 187.69 59.0537 186.639 59.0537C185.588 59.0537 184.736 59.8962 184.736 60.9354C184.736 61.9745 185.588 62.817 186.639 62.817Z" fill="url(#paint49_linear_409_156629)"/>
<path d="M201.573 52.9747C202.624 52.9747 203.477 52.1323 203.477 51.0931C203.477 50.0539 202.624 49.2115 201.573 49.2115C200.522 49.2115 199.67 50.0539 199.67 51.0931C199.67 52.1323 200.522 52.9747 201.573 52.9747Z" fill="url(#paint50_linear_409_156629)"/>
<path d="M191.617 52.9747C192.642 52.9747 193.521 52.1062 193.521 51.0931C193.521 50.0799 192.642 49.2115 191.617 49.2115C190.592 49.2115 189.714 50.0799 189.714 51.0931C189.714 52.1062 190.592 52.9747 191.617 52.9747Z" fill="url(#paint51_linear_409_156629)"/>
<path d="M176.683 62.817C177.734 62.817 178.587 61.9745 178.587 60.9354C178.587 59.8962 177.734 59.0537 176.683 59.0537C175.632 59.0537 174.78 59.8962 174.78 60.9354C174.78 61.9745 175.632 62.817 176.683 62.817Z" fill="url(#paint52_linear_409_156629)"/>
<path d="M166.727 59.0537C165.702 59.0537 164.824 59.9222 164.824 60.9354C164.824 61.9485 165.702 62.817 166.727 62.817C167.752 62.817 168.631 61.9485 168.631 60.9354C168.631 59.9222 167.752 59.0537 166.727 59.0537Z" fill="url(#paint53_linear_409_156629)"/>
<path d="M180.197 50.0799C179.904 50.3694 179.758 50.8036 179.758 51.0931C179.758 52.1062 180.636 52.9747 181.661 52.9747C182.686 52.9747 183.565 52.1062 183.565 51.0931C183.565 50.2246 182.979 49.5009 182.1 49.3562C181.515 49.6457 180.783 49.7904 180.197 50.0799Z" fill="url(#paint54_linear_409_156629)"/>
<path d="M169.802 51.0931C169.802 52.1062 170.68 52.9747 171.705 52.9747C172.73 52.9747 173.609 52.1062 173.609 51.0931C173.609 50.9483 173.609 50.9483 173.609 50.8036C172.437 50.6589 171.412 50.3694 170.388 49.9352C169.948 50.3694 169.802 50.6588 169.802 51.0931Z" fill="url(#paint55_linear_409_156629)"/>
<path d="M156.478 39.5139C155.6 39.6586 154.868 40.3824 154.868 41.2508C154.868 42.264 155.746 43.1324 156.771 43.1324C157.796 43.1324 158.675 42.264 158.675 41.2508C158.675 41.1061 158.675 41.106 158.675 40.9613C157.943 40.5271 157.211 39.9481 156.478 39.5139Z" fill="url(#paint56_linear_409_156629)"/>
<path d="M146.815 39.3692C145.79 39.3692 144.912 40.2376 144.912 41.2508C144.912 42.264 145.79 43.1324 146.815 43.1324C147.84 43.1324 148.719 42.264 148.719 41.2508C148.719 40.2376 147.84 39.3692 146.815 39.3692Z" fill="url(#paint57_linear_409_156629)"/>
<path d="M156.771 62.817C157.822 62.817 158.675 61.9745 158.675 60.9354C158.675 59.8962 157.822 59.0537 156.771 59.0537C155.72 59.0537 154.868 59.8962 154.868 60.9354C154.868 61.9745 155.72 62.817 156.771 62.817Z" fill="url(#paint58_linear_409_156629)"/>
<path d="M146.815 59.0537C145.79 59.0537 144.912 59.9222 144.912 60.9354C144.912 61.9485 145.79 62.817 146.815 62.817C147.84 62.817 148.719 61.9485 148.719 60.9354C148.719 59.9222 147.84 59.0537 146.815 59.0537Z" fill="url(#paint59_linear_409_156629)"/>
<path d="M161.749 52.9747C162.774 52.9747 163.653 52.1062 163.653 51.0931C163.653 50.0799 162.774 49.2115 161.749 49.2115C160.724 49.2115 159.846 50.0799 159.846 51.0931C159.846 52.1062 160.724 52.9747 161.749 52.9747Z" fill="url(#paint60_linear_409_156629)"/>
<path d="M151.793 52.9747C152.844 52.9747 153.697 52.1323 153.697 51.0931C153.697 50.0539 152.844 49.2115 151.793 49.2115C150.742 49.2115 149.89 50.0539 149.89 51.0931C149.89 52.1323 150.742 52.9747 151.793 52.9747Z" fill="url(#paint61_linear_409_156629)"/>
<path d="M137.299 39.5139C136.566 39.9481 135.834 40.3823 135.102 40.9613C135.102 41.106 134.956 41.2508 134.956 41.3955C134.956 42.4087 135.834 43.2771 136.859 43.2771C137.884 43.2771 138.763 42.4087 138.763 41.3955C138.763 40.3823 138.177 39.6586 137.299 39.5139Z" fill="url(#paint62_linear_409_156629)"/>
<path d="M136.859 59.0537C135.834 59.0537 134.956 59.9222 134.956 60.9354C134.956 61.9485 135.834 62.817 136.859 62.817C137.884 62.817 138.763 61.9485 138.763 60.9354C138.763 59.9222 137.884 59.0537 136.859 59.0537Z" fill="url(#paint63_linear_409_156629)"/>
<path d="M126.903 62.817C127.955 62.817 128.807 61.9745 128.807 60.9354C128.807 59.8962 127.955 59.0537 126.903 59.0537C125.852 59.0537 125 59.8962 125 60.9354C125 61.9745 125.852 62.817 126.903 62.817Z" fill="url(#paint64_linear_409_156629)"/>
<path d="M141.837 52.9747C142.862 52.9747 143.741 52.1062 143.741 51.0931C143.741 50.0799 142.862 49.2115 141.837 49.2115C140.812 49.2115 139.934 50.0799 139.934 51.0931C139.934 52.1062 140.812 52.9747 141.837 52.9747Z" fill="url(#paint65_linear_409_156629)"/>
<path d="M131.881 52.9747C132.933 52.9747 133.785 52.1323 133.785 51.0931C133.785 50.0539 132.933 49.2115 131.881 49.2115C130.83 49.2115 129.978 50.0539 129.978 51.0931C129.978 52.1323 130.83 52.9747 131.881 52.9747Z" fill="url(#paint66_linear_409_156629)"/>
</g>
<path d="M155.977 93.5562L165.076 87.1407C168.453 84.792 173.075 86.7721 173.597 90.8929C174.035 94.0472 171.566 96.8581 168.375 96.9724L154.953 97.3782L155.977 93.5562Z" fill="url(#paint67_linear_409_156629)"/>
<path d="M150.048 99.0755L164.917 102.601C169.038 103.564 171.108 108.2 169.122 111.914C167.239 115.332 162.815 116.359 159.575 114.058L148.19 105.792L150.048 99.0755Z" fill="url(#paint68_linear_409_156629)"/>
<path d="M154.201 96.7012H173.313C177.977 96.7012 181.111 101.427 179.276 105.696C177.9 108.821 174.307 110.346 171.096 109.203L149.843 101.275L154.201 96.7012Z" fill="url(#paint69_linear_409_156629)"/>
<path d="M69.0352 79.7785C70.6406 75.8908 78.3621 75.4334 82.3376 75.5097C103.514 75.967 124.615 80.0071 144.492 87.3251C147.856 88.5447 157.183 90.5267 157.183 95.1766C157.183 96.3962 156.647 97.4634 156.112 98.5306C148.009 113.014 126.22 112.862 113.376 105.315C107.031 101.58 101.68 95.9389 94.7225 93.652C89.6004 91.975 83.943 92.3561 78.7444 90.9078C75.3041 89.9168 71.4052 88.0111 69.7232 84.6571C68.5765 82.5989 68.5 80.9981 69.0352 79.7785Z" fill="url(#paint70_linear_409_156629)"/>
<path d="M125.073 93.1184C132.183 94.643 139.828 92.661 143.191 85.2669C144.568 82.1415 145.714 78.9399 146.479 75.5858C146.785 74.3662 147.014 73.0703 146.708 71.8507C146.402 70.631 145.485 69.4876 144.185 69.4113C142.733 69.2589 141.586 70.4785 140.669 71.5457C138.299 74.29 135.929 76.958 133.559 79.7022C134.4 76.1194 134.858 71.5457 131.418 69.7163C129.736 68.8015 127.672 69.1064 126.066 70.0974C122.932 72.0793 121.938 75.5858 120.944 78.8637C121.327 75.5858 121.632 72.1556 119.568 69.4113C118.574 68.0392 117.045 67.1245 115.363 67.2007C112.611 67.3532 111.312 69.7163 110.471 71.9269C110.471 72.0031 110.471 72.0031 110.394 72.0793C106.495 82.4464 115.363 91.0602 125.073 93.1184Z" fill="url(#paint71_linear_409_156629)"/>
<g opacity="0.1">
<path d="M80.1961 80.9981C79.9668 82.0653 78.9729 82.7513 77.9026 82.5226C76.8323 82.294 76.1442 81.303 76.3736 80.2358C76.603 79.1686 77.5968 78.4825 78.6671 78.7112C79.7374 78.9399 80.4255 79.9309 80.1961 80.9981Z" fill="#231F20"/>
</g>
<path opacity="0.4" d="M39.5252 123L80.0439 54.6993L40.519 31.907L0.000274658 100.131L39.5252 123Z" fill="#F4E0C6"/>
<g opacity="0.03">
<path d="M22.8595 104.476L28.9756 93.9568L15.5967 86.1815L9.48071 96.701L22.8595 104.476ZM27.9053 94.2617L22.6302 103.409L10.6275 96.4724L15.9026 87.3249L27.9053 94.2617Z" fill="#231F20"/>
<path d="M42.6353 42.9674L43.293 43.3561L24.8154 74.4371L24.1578 74.0484L42.6353 42.9674Z" fill="#231F20"/>
<path d="M48.182 46.1691L48.8379 46.5608L36.2265 67.553L35.5706 67.1613L48.182 46.1691Z" fill="#231F20"/>
<path d="M46.3006 83.5659L46.957 83.9565L31.8332 109.223L31.1767 108.832L46.3006 83.5659Z" fill="#231F20"/>
<path d="M51.9373 86.8593L52.5938 87.25L37.4699 112.517L36.8134 112.126L51.9373 86.8593Z" fill="#231F20"/>
</g>
<path d="M69.7223 79.0162L55.7319 83.8186L71.5571 86.7915C71.5571 86.7915 72.8568 84.1235 69.7223 79.0162Z" fill="#353646"/>
<g opacity="0.1">
<path d="M70.8133 83.2088C66.3742 83.285 61.9986 83.7424 57.6229 84.4285C57.2424 84.5047 57.2424 83.7424 57.6229 83.7424C61.9986 83.0563 66.4376 82.6752 70.8133 82.5227C71.1938 82.4465 71.1938 83.1326 70.8133 83.2088Z" fill="#231F20"/>
</g>
<defs>
<linearGradient id="paint0_linear_409_156629" x1="201.627" y1="-9.45416" x2="201.627" y2="51.3244" gradientUnits="userSpaceOnUse">
<stop stop-color="#202E3F"/>
<stop offset="0.3833" stop-color="#745A71"/>
<stop offset="0.8072" stop-color="#CC88A6"/>
<stop offset="1" stop-color="#EF9ABB"/>
</linearGradient>
<linearGradient id="paint1_linear_409_156629" x1="201.627" y1="-9.45416" x2="201.627" y2="51.3244" gradientUnits="userSpaceOnUse">
<stop stop-color="#202E3F"/>
<stop offset="0.3833" stop-color="#745A71"/>
<stop offset="0.8072" stop-color="#CC88A6"/>
<stop offset="1" stop-color="#EF9ABB"/>
</linearGradient>
<linearGradient id="paint2_linear_409_156629" x1="201.627" y1="-9.45416" x2="201.627" y2="51.3244" gradientUnits="userSpaceOnUse">
<stop stop-color="#202E3F"/>
<stop offset="0.3833" stop-color="#745A71"/>
<stop offset="0.8072" stop-color="#CC88A6"/>
<stop offset="1" stop-color="#EF9ABB"/>
</linearGradient>
<linearGradient id="paint3_linear_409_156629" x1="201.627" y1="-9.45416" x2="201.627" y2="51.3244" gradientUnits="userSpaceOnUse">
<stop stop-color="#202E3F"/>
<stop offset="0.3833" stop-color="#745A71"/>
<stop offset="0.8072" stop-color="#CC88A6"/>
<stop offset="1" stop-color="#EF9ABB"/>
</linearGradient>
<linearGradient id="paint4_linear_409_156629" x1="201.627" y1="-9.45416" x2="201.627" y2="51.3244" gradientUnits="userSpaceOnUse">
<stop stop-color="#202E3F"/>
<stop offset="0.3833" stop-color="#745A71"/>
<stop offset="0.8072" stop-color="#CC88A6"/>
<stop offset="1" stop-color="#EF9ABB"/>
</linearGradient>
<linearGradient id="paint5_linear_409_156629" x1="201.627" y1="-9.45416" x2="201.627" y2="51.3244" gradientUnits="userSpaceOnUse">
<stop stop-color="#202E3F"/>
<stop offset="0.3833" stop-color="#745A71"/>
<stop offset="0.8072" stop-color="#CC88A6"/>
<stop offset="1" stop-color="#EF9ABB"/>
</linearGradient>
<linearGradient id="paint6_linear_409_156629" x1="201.627" y1="-9.45416" x2="201.627" y2="51.3244" gradientUnits="userSpaceOnUse">
<stop stop-color="#202E3F"/>
<stop offset="0.3833" stop-color="#745A71"/>
<stop offset="0.8072" stop-color="#CC88A6"/>
<stop offset="1" stop-color="#EF9ABB"/>
</linearGradient>
<linearGradient id="paint7_linear_409_156629" x1="201.627" y1="-9.45416" x2="201.627" y2="51.3244" gradientUnits="userSpaceOnUse">
<stop stop-color="#202E3F"/>
<stop offset="0.3833" stop-color="#745A71"/>
<stop offset="0.8072" stop-color="#CC88A6"/>
<stop offset="1" stop-color="#EF9ABB"/>
</linearGradient>
<linearGradient id="paint8_linear_409_156629" x1="201.627" y1="-9.45416" x2="201.627" y2="51.3244" gradientUnits="userSpaceOnUse">
<stop stop-color="#202E3F"/>
<stop offset="0.3833" stop-color="#745A71"/>
<stop offset="0.8072" stop-color="#CC88A6"/>
<stop offset="1" stop-color="#EF9ABB"/>
</linearGradient>
<linearGradient id="paint9_linear_409_156629" x1="201.627" y1="-9.45416" x2="201.627" y2="51.3244" gradientUnits="userSpaceOnUse">
<stop stop-color="#202E3F"/>
<stop offset="0.3833" stop-color="#745A71"/>
<stop offset="0.8072" stop-color="#CC88A6"/>
<stop offset="1" stop-color="#EF9ABB"/>
</linearGradient>
<linearGradient id="paint10_linear_409_156629" x1="201.627" y1="-9.45416" x2="201.627" y2="51.3244" gradientUnits="userSpaceOnUse">
<stop stop-color="#202E3F"/>
<stop offset="0.3833" stop-color="#745A71"/>
<stop offset="0.8072" stop-color="#CC88A6"/>
<stop offset="1" stop-color="#EF9ABB"/>
</linearGradient>
<linearGradient id="paint11_linear_409_156629" x1="201.627" y1="-9.45416" x2="201.627" y2="51.3244" gradientUnits="userSpaceOnUse">
<stop stop-color="#202E3F"/>
<stop offset="0.3833" stop-color="#745A71"/>
<stop offset="0.8072" stop-color="#CC88A6"/>
<stop offset="1" stop-color="#EF9ABB"/>
</linearGradient>
<linearGradient id="paint12_linear_409_156629" x1="201.627" y1="-9.45416" x2="201.627" y2="51.3244" gradientUnits="userSpaceOnUse">
<stop stop-color="#202E3F"/>
<stop offset="0.3833" stop-color="#745A71"/>
<stop offset="0.8072" stop-color="#CC88A6"/>
<stop offset="1" stop-color="#EF9ABB"/>
</linearGradient>
<linearGradient id="paint13_linear_409_156629" x1="201.627" y1="-9.45416" x2="201.627" y2="51.3244" gradientUnits="userSpaceOnUse">
<stop stop-color="#202E3F"/>
<stop offset="0.3833" stop-color="#745A71"/>
<stop offset="0.8072" stop-color="#CC88A6"/>
<stop offset="1" stop-color="#EF9ABB"/>
</linearGradient>
<linearGradient id="paint14_linear_409_156629" x1="201.627" y1="-9.45416" x2="201.627" y2="51.3244" gradientUnits="userSpaceOnUse">
<stop stop-color="#202E3F"/>
<stop offset="0.3833" stop-color="#745A71"/>
<stop offset="0.8072" stop-color="#CC88A6"/>
<stop offset="1" stop-color="#EF9ABB"/>
</linearGradient>
<linearGradient id="paint15_linear_409_156629" x1="201.627" y1="-9.45416" x2="201.627" y2="51.3244" gradientUnits="userSpaceOnUse">
<stop stop-color="#202E3F"/>
<stop offset="0.3833" stop-color="#745A71"/>
<stop offset="0.8072" stop-color="#CC88A6"/>
<stop offset="1" stop-color="#EF9ABB"/>
</linearGradient>
<linearGradient id="paint16_linear_409_156629" x1="201.627" y1="-9.45416" x2="201.627" y2="51.3244" gradientUnits="userSpaceOnUse">
<stop stop-color="#202E3F"/>
<stop offset="0.3833" stop-color="#745A71"/>
<stop offset="0.8072" stop-color="#CC88A6"/>
<stop offset="1" stop-color="#EF9ABB"/>
</linearGradient>
<linearGradient id="paint17_linear_409_156629" x1="201.627" y1="-9.45416" x2="201.627" y2="51.3244" gradientUnits="userSpaceOnUse">
<stop stop-color="#202E3F"/>
<stop offset="0.3833" stop-color="#745A71"/>
<stop offset="0.8072" stop-color="#CC88A6"/>
<stop offset="1" stop-color="#EF9ABB"/>
</linearGradient>
<linearGradient id="paint18_linear_409_156629" x1="201.627" y1="-9.45416" x2="201.627" y2="51.3244" gradientUnits="userSpaceOnUse">
<stop stop-color="#202E3F"/>
<stop offset="0.3833" stop-color="#745A71"/>
<stop offset="0.8072" stop-color="#CC88A6"/>
<stop offset="1" stop-color="#EF9ABB"/>
</linearGradient>
<linearGradient id="paint19_linear_409_156629" x1="201.627" y1="-9.45416" x2="201.627" y2="51.3244" gradientUnits="userSpaceOnUse">
<stop stop-color="#202E3F"/>
<stop offset="0.3833" stop-color="#745A71"/>
<stop offset="0.8072" stop-color="#CC88A6"/>
<stop offset="1" stop-color="#EF9ABB"/>
</linearGradient>
<linearGradient id="paint20_linear_409_156629" x1="201.627" y1="-9.45416" x2="201.627" y2="51.3244" gradientUnits="userSpaceOnUse">
<stop stop-color="#202E3F"/>
<stop offset="0.3833" stop-color="#745A71"/>
<stop offset="0.8072" stop-color="#CC88A6"/>
<stop offset="1" stop-color="#EF9ABB"/>
</linearGradient>
<linearGradient id="paint21_linear_409_156629" x1="201.627" y1="-9.45416" x2="201.627" y2="51.3244" gradientUnits="userSpaceOnUse">
<stop stop-color="#202E3F"/>
<stop offset="0.3833" stop-color="#745A71"/>
<stop offset="0.8072" stop-color="#CC88A6"/>
<stop offset="1" stop-color="#EF9ABB"/>
</linearGradient>
<linearGradient id="paint22_linear_409_156629" x1="201.627" y1="-9.45416" x2="201.627" y2="51.3244" gradientUnits="userSpaceOnUse">
<stop stop-color="#202E3F"/>
<stop offset="0.3833" stop-color="#745A71"/>
<stop offset="0.8072" stop-color="#CC88A6"/>
<stop offset="1" stop-color="#EF9ABB"/>
</linearGradient>
<linearGradient id="paint23_linear_409_156629" x1="201.627" y1="-9.45416" x2="201.627" y2="51.3244" gradientUnits="userSpaceOnUse">
<stop stop-color="#202E3F"/>
<stop offset="0.3833" stop-color="#745A71"/>
<stop offset="0.8072" stop-color="#CC88A6"/>
<stop offset="1" stop-color="#EF9ABB"/>
</linearGradient>
<linearGradient id="paint24_linear_409_156629" x1="201.627" y1="-9.45416" x2="201.627" y2="51.3244" gradientUnits="userSpaceOnUse">
<stop stop-color="#202E3F"/>
<stop offset="0.3833" stop-color="#745A71"/>
<stop offset="0.8072" stop-color="#CC88A6"/>
<stop offset="1" stop-color="#EF9ABB"/>
</linearGradient>
<linearGradient id="paint25_linear_409_156629" x1="201.627" y1="-9.45416" x2="201.627" y2="51.3244" gradientUnits="userSpaceOnUse">
<stop stop-color="#202E3F"/>
<stop offset="0.3833" stop-color="#745A71"/>
<stop offset="0.8072" stop-color="#CC88A6"/>
<stop offset="1" stop-color="#EF9ABB"/>
</linearGradient>
<linearGradient id="paint26_linear_409_156629" x1="201.627" y1="-9.45416" x2="201.627" y2="51.3244" gradientUnits="userSpaceOnUse">
<stop stop-color="#202E3F"/>
<stop offset="0.3833" stop-color="#745A71"/>
<stop offset="0.8072" stop-color="#CC88A6"/>
<stop offset="1" stop-color="#EF9ABB"/>
</linearGradient>
<linearGradient id="paint27_linear_409_156629" x1="201.627" y1="-9.45416" x2="201.627" y2="51.3244" gradientUnits="userSpaceOnUse">
<stop stop-color="#202E3F"/>
<stop offset="0.3833" stop-color="#745A71"/>
<stop offset="0.8072" stop-color="#CC88A6"/>
<stop offset="1" stop-color="#EF9ABB"/>
</linearGradient>
<linearGradient id="paint28_linear_409_156629" x1="201.627" y1="-9.45416" x2="201.627" y2="51.3244" gradientUnits="userSpaceOnUse">
<stop stop-color="#202E3F"/>
<stop offset="0.3833" stop-color="#745A71"/>
<stop offset="0.8072" stop-color="#CC88A6"/>
<stop offset="1" stop-color="#EF9ABB"/>
</linearGradient>
<linearGradient id="paint29_linear_409_156629" x1="201.627" y1="-9.45416" x2="201.627" y2="51.3244" gradientUnits="userSpaceOnUse">
<stop stop-color="#202E3F"/>
<stop offset="0.3833" stop-color="#745A71"/>
<stop offset="0.8072" stop-color="#CC88A6"/>
<stop offset="1" stop-color="#EF9ABB"/>
</linearGradient>
<linearGradient id="paint30_linear_409_156629" x1="201.627" y1="-9.45416" x2="201.627" y2="51.3244" gradientUnits="userSpaceOnUse">
<stop stop-color="#202E3F"/>
<stop offset="0.3833" stop-color="#745A71"/>
<stop offset="0.8072" stop-color="#CC88A6"/>
<stop offset="1" stop-color="#EF9ABB"/>
</linearGradient>
<linearGradient id="paint31_linear_409_156629" x1="201.627" y1="-9.45416" x2="201.627" y2="51.3244" gradientUnits="userSpaceOnUse">
<stop stop-color="#202E3F"/>
<stop offset="0.3833" stop-color="#745A71"/>
<stop offset="0.8072" stop-color="#CC88A6"/>
<stop offset="1" stop-color="#EF9ABB"/>
</linearGradient>
<linearGradient id="paint32_linear_409_156629" x1="201.627" y1="-9.45416" x2="201.627" y2="51.3244" gradientUnits="userSpaceOnUse">
<stop stop-color="#202E3F"/>
<stop offset="0.3833" stop-color="#745A71"/>
<stop offset="0.8072" stop-color="#CC88A6"/>
<stop offset="1" stop-color="#EF9ABB"/>
</linearGradient>
<linearGradient id="paint33_linear_409_156629" x1="201.627" y1="-9.45416" x2="201.627" y2="51.3244" gradientUnits="userSpaceOnUse">
<stop stop-color="#202E3F"/>
<stop offset="0.3833" stop-color="#745A71"/>
<stop offset="0.8072" stop-color="#CC88A6"/>
<stop offset="1" stop-color="#EF9ABB"/>
</linearGradient>
<linearGradient id="paint34_linear_409_156629" x1="201.627" y1="-9.45416" x2="201.627" y2="51.3244" gradientUnits="userSpaceOnUse">
<stop stop-color="#202E3F"/>
<stop offset="0.3833" stop-color="#745A71"/>
<stop offset="0.8072" stop-color="#CC88A6"/>
<stop offset="1" stop-color="#EF9ABB"/>
</linearGradient>
<linearGradient id="paint35_linear_409_156629" x1="201.627" y1="-9.45416" x2="201.627" y2="51.3244" gradientUnits="userSpaceOnUse">
<stop stop-color="#202E3F"/>
<stop offset="0.3833" stop-color="#745A71"/>
<stop offset="0.8072" stop-color="#CC88A6"/>
<stop offset="1" stop-color="#EF9ABB"/>
</linearGradient>
<linearGradient id="paint36_linear_409_156629" x1="201.627" y1="-9.45416" x2="201.627" y2="51.3244" gradientUnits="userSpaceOnUse">
<stop stop-color="#202E3F"/>
<stop offset="0.3833" stop-color="#745A71"/>
<stop offset="0.8072" stop-color="#CC88A6"/>
<stop offset="1" stop-color="#EF9ABB"/>
</linearGradient>
<linearGradient id="paint37_linear_409_156629" x1="201.627" y1="-9.45416" x2="201.627" y2="51.3244" gradientUnits="userSpaceOnUse">
<stop stop-color="#202E3F"/>
<stop offset="0.3833" stop-color="#745A71"/>
<stop offset="0.8072" stop-color="#CC88A6"/>
<stop offset="1" stop-color="#EF9ABB"/>
</linearGradient>
<linearGradient id="paint38_linear_409_156629" x1="201.627" y1="-9.45416" x2="201.627" y2="51.3244" gradientUnits="userSpaceOnUse">
<stop stop-color="#202E3F"/>
<stop offset="0.3833" stop-color="#745A71"/>
<stop offset="0.8072" stop-color="#CC88A6"/>
<stop offset="1" stop-color="#EF9ABB"/>
</linearGradient>
<linearGradient id="paint39_linear_409_156629" x1="201.627" y1="-9.45416" x2="201.627" y2="51.3244" gradientUnits="userSpaceOnUse">
<stop stop-color="#202E3F"/>
<stop offset="0.3833" stop-color="#745A71"/>
<stop offset="0.8072" stop-color="#CC88A6"/>
<stop offset="1" stop-color="#EF9ABB"/>
</linearGradient>
<linearGradient id="paint40_linear_409_156629" x1="201.627" y1="-9.45416" x2="201.627" y2="51.3244" gradientUnits="userSpaceOnUse">
<stop stop-color="#202E3F"/>
<stop offset="0.3833" stop-color="#745A71"/>
<stop offset="0.8072" stop-color="#CC88A6"/>
<stop offset="1" stop-color="#EF9ABB"/>
</linearGradient>
<linearGradient id="paint41_linear_409_156629" x1="201.627" y1="-9.45416" x2="201.627" y2="51.3244" gradientUnits="userSpaceOnUse">
<stop stop-color="#202E3F"/>
<stop offset="0.3833" stop-color="#745A71"/>
<stop offset="0.8072" stop-color="#CC88A6"/>
<stop offset="1" stop-color="#EF9ABB"/>
</linearGradient>
<linearGradient id="paint42_linear_409_156629" x1="201.627" y1="-9.45416" x2="201.627" y2="51.3244" gradientUnits="userSpaceOnUse">
<stop stop-color="#202E3F"/>
<stop offset="0.3833" stop-color="#745A71"/>
<stop offset="0.8072" stop-color="#CC88A6"/>
<stop offset="1" stop-color="#EF9ABB"/>
</linearGradient>
<linearGradient id="paint43_linear_409_156629" x1="201.627" y1="-9.45416" x2="201.627" y2="51.3244" gradientUnits="userSpaceOnUse">
<stop stop-color="#202E3F"/>
<stop offset="0.3833" stop-color="#745A71"/>
<stop offset="0.8072" stop-color="#CC88A6"/>
<stop offset="1" stop-color="#EF9ABB"/>
</linearGradient>
<linearGradient id="paint44_linear_409_156629" x1="201.627" y1="-9.45416" x2="201.627" y2="51.3244" gradientUnits="userSpaceOnUse">
<stop stop-color="#202E3F"/>
<stop offset="0.3833" stop-color="#745A71"/>
<stop offset="0.8072" stop-color="#CC88A6"/>
<stop offset="1" stop-color="#EF9ABB"/>
</linearGradient>
<linearGradient id="paint45_linear_409_156629" x1="201.627" y1="-9.45416" x2="201.627" y2="51.3244" gradientUnits="userSpaceOnUse">
<stop stop-color="#202E3F"/>
<stop offset="0.3833" stop-color="#745A71"/>
<stop offset="0.8072" stop-color="#CC88A6"/>
<stop offset="1" stop-color="#EF9ABB"/>
</linearGradient>
<linearGradient id="paint46_linear_409_156629" x1="201.627" y1="-9.45416" x2="201.627" y2="51.3244" gradientUnits="userSpaceOnUse">
<stop stop-color="#202E3F"/>
<stop offset="0.3833" stop-color="#745A71"/>
<stop offset="0.8072" stop-color="#CC88A6"/>
<stop offset="1" stop-color="#EF9ABB"/>
</linearGradient>
<linearGradient id="paint47_linear_409_156629" x1="201.627" y1="-9.45416" x2="201.627" y2="51.3244" gradientUnits="userSpaceOnUse">
<stop stop-color="#202E3F"/>
<stop offset="0.3833" stop-color="#745A71"/>
<stop offset="0.8072" stop-color="#CC88A6"/>
<stop offset="1" stop-color="#EF9ABB"/>
</linearGradient>
<linearGradient id="paint48_linear_409_156629" x1="201.627" y1="-9.45416" x2="201.627" y2="51.3244" gradientUnits="userSpaceOnUse">
<stop stop-color="#202E3F"/>
<stop offset="0.3833" stop-color="#745A71"/>
<stop offset="0.8072" stop-color="#CC88A6"/>
<stop offset="1" stop-color="#EF9ABB"/>
</linearGradient>
<linearGradient id="paint49_linear_409_156629" x1="201.627" y1="-9.45416" x2="201.627" y2="51.3244" gradientUnits="userSpaceOnUse">
<stop stop-color="#202E3F"/>
<stop offset="0.3833" stop-color="#745A71"/>
<stop offset="0.8072" stop-color="#CC88A6"/>
<stop offset="1" stop-color="#EF9ABB"/>
</linearGradient>
<linearGradient id="paint50_linear_409_156629" x1="201.627" y1="-9.45416" x2="201.627" y2="51.3244" gradientUnits="userSpaceOnUse">
<stop stop-color="#202E3F"/>
<stop offset="0.3833" stop-color="#745A71"/>
<stop offset="0.8072" stop-color="#CC88A6"/>
<stop offset="1" stop-color="#EF9ABB"/>
</linearGradient>
<linearGradient id="paint51_linear_409_156629" x1="201.627" y1="-9.45416" x2="201.627" y2="51.3244" gradientUnits="userSpaceOnUse">
<stop stop-color="#202E3F"/>
<stop offset="0.3833" stop-color="#745A71"/>
<stop offset="0.8072" stop-color="#CC88A6"/>
<stop offset="1" stop-color="#EF9ABB"/>
</linearGradient>
<linearGradient id="paint52_linear_409_156629" x1="201.627" y1="-9.45416" x2="201.627" y2="51.3244" gradientUnits="userSpaceOnUse">
<stop stop-color="#202E3F"/>
<stop offset="0.3833" stop-color="#745A71"/>
<stop offset="0.8072" stop-color="#CC88A6"/>
<stop offset="1" stop-color="#EF9ABB"/>
</linearGradient>
<linearGradient id="paint53_linear_409_156629" x1="201.627" y1="-9.45416" x2="201.627" y2="51.3244" gradientUnits="userSpaceOnUse">
<stop stop-color="#202E3F"/>
<stop offset="0.3833" stop-color="#745A71"/>
<stop offset="0.8072" stop-color="#CC88A6"/>
<stop offset="1" stop-color="#EF9ABB"/>
</linearGradient>
<linearGradient id="paint54_linear_409_156629" x1="201.627" y1="-9.45416" x2="201.627" y2="51.3244" gradientUnits="userSpaceOnUse">
<stop stop-color="#202E3F"/>
<stop offset="0.3833" stop-color="#745A71"/>
<stop offset="0.8072" stop-color="#CC88A6"/>
<stop offset="1" stop-color="#EF9ABB"/>
</linearGradient>
<linearGradient id="paint55_linear_409_156629" x1="201.627" y1="-9.45416" x2="201.627" y2="51.3244" gradientUnits="userSpaceOnUse">
<stop stop-color="#202E3F"/>
<stop offset="0.3833" stop-color="#745A71"/>
<stop offset="0.8072" stop-color="#CC88A6"/>
<stop offset="1" stop-color="#EF9ABB"/>
</linearGradient>
<linearGradient id="paint56_linear_409_156629" x1="201.627" y1="-9.45416" x2="201.627" y2="51.3244" gradientUnits="userSpaceOnUse">
<stop stop-color="#202E3F"/>
<stop offset="0.3833" stop-color="#745A71"/>
<stop offset="0.8072" stop-color="#CC88A6"/>
<stop offset="1" stop-color="#EF9ABB"/>
</linearGradient>
<linearGradient id="paint57_linear_409_156629" x1="201.627" y1="-9.45416" x2="201.627" y2="51.3244" gradientUnits="userSpaceOnUse">
<stop stop-color="#202E3F"/>
<stop offset="0.3833" stop-color="#745A71"/>
<stop offset="0.8072" stop-color="#CC88A6"/>
<stop offset="1" stop-color="#EF9ABB"/>
</linearGradient>
<linearGradient id="paint58_linear_409_156629" x1="201.627" y1="-9.45416" x2="201.627" y2="51.3244" gradientUnits="userSpaceOnUse">
<stop stop-color="#202E3F"/>
<stop offset="0.3833" stop-color="#745A71"/>
<stop offset="0.8072" stop-color="#CC88A6"/>
<stop offset="1" stop-color="#EF9ABB"/>
</linearGradient>
<linearGradient id="paint59_linear_409_156629" x1="201.627" y1="-9.45416" x2="201.627" y2="51.3244" gradientUnits="userSpaceOnUse">
<stop stop-color="#202E3F"/>
<stop offset="0.3833" stop-color="#745A71"/>
<stop offset="0.8072" stop-color="#CC88A6"/>
<stop offset="1" stop-color="#EF9ABB"/>
</linearGradient>
<linearGradient id="paint60_linear_409_156629" x1="201.627" y1="-9.45416" x2="201.627" y2="51.3244" gradientUnits="userSpaceOnUse">
<stop stop-color="#202E3F"/>
<stop offset="0.3833" stop-color="#745A71"/>
<stop offset="0.8072" stop-color="#CC88A6"/>
<stop offset="1" stop-color="#EF9ABB"/>
</linearGradient>
<linearGradient id="paint61_linear_409_156629" x1="201.627" y1="-9.45416" x2="201.627" y2="51.3244" gradientUnits="userSpaceOnUse">
<stop stop-color="#202E3F"/>
<stop offset="0.3833" stop-color="#745A71"/>
<stop offset="0.8072" stop-color="#CC88A6"/>
<stop offset="1" stop-color="#EF9ABB"/>
</linearGradient>
<linearGradient id="paint62_linear_409_156629" x1="201.627" y1="-9.45416" x2="201.627" y2="51.3244" gradientUnits="userSpaceOnUse">
<stop stop-color="#202E3F"/>
<stop offset="0.3833" stop-color="#745A71"/>
<stop offset="0.8072" stop-color="#CC88A6"/>
<stop offset="1" stop-color="#EF9ABB"/>
</linearGradient>
<linearGradient id="paint63_linear_409_156629" x1="201.627" y1="-9.45416" x2="201.627" y2="51.3244" gradientUnits="userSpaceOnUse">
<stop stop-color="#202E3F"/>
<stop offset="0.3833" stop-color="#745A71"/>
<stop offset="0.8072" stop-color="#CC88A6"/>
<stop offset="1" stop-color="#EF9ABB"/>
</linearGradient>
<linearGradient id="paint64_linear_409_156629" x1="201.627" y1="-9.45416" x2="201.627" y2="51.3244" gradientUnits="userSpaceOnUse">
<stop stop-color="#202E3F"/>
<stop offset="0.3833" stop-color="#745A71"/>
<stop offset="0.8072" stop-color="#CC88A6"/>
<stop offset="1" stop-color="#EF9ABB"/>
</linearGradient>
<linearGradient id="paint65_linear_409_156629" x1="201.627" y1="-9.45416" x2="201.627" y2="51.3244" gradientUnits="userSpaceOnUse">
<stop stop-color="#202E3F"/>
<stop offset="0.3833" stop-color="#745A71"/>
<stop offset="0.8072" stop-color="#CC88A6"/>
<stop offset="1" stop-color="#EF9ABB"/>
</linearGradient>
<linearGradient id="paint66_linear_409_156629" x1="201.627" y1="-9.45416" x2="201.627" y2="51.3244" gradientUnits="userSpaceOnUse">
<stop stop-color="#202E3F"/>
<stop offset="0.3833" stop-color="#745A71"/>
<stop offset="0.8072" stop-color="#CC88A6"/>
<stop offset="1" stop-color="#EF9ABB"/>
</linearGradient>
<linearGradient id="paint67_linear_409_156629" x1="125.761" y1="120.713" x2="183.085" y2="90.055" gradientUnits="userSpaceOnUse">
<stop stop-color="#2A3A51"/>
<stop offset="0.1451" stop-color="#554551"/>
<stop offset="0.3684" stop-color="#915651"/>
<stop offset="0.5736" stop-color="#C06252"/>
<stop offset="0.7538" stop-color="#E36B52"/>
<stop offset="0.9021" stop-color="#F77152"/>
<stop offset="1" stop-color="#FF7352"/>
</linearGradient>
<linearGradient id="paint68_linear_409_156629" x1="150.607" y1="124.906" x2="165.898" y2="105.797" gradientUnits="userSpaceOnUse">
<stop stop-color="#2A3A51"/>
<stop offset="0.1451" stop-color="#554551"/>
<stop offset="0.3684" stop-color="#915651"/>
<stop offset="0.5736" stop-color="#C06252"/>
<stop offset="0.7538" stop-color="#E36B52"/>
<stop offset="0.9021" stop-color="#F77152"/>
<stop offset="1" stop-color="#FF7352"/>
</linearGradient>
<linearGradient id="paint69_linear_409_156629" x1="155.959" y1="121.094" x2="173.353" y2="110.956" gradientUnits="userSpaceOnUse">
<stop stop-color="#2A3A51"/>
<stop offset="0.1451" stop-color="#554551"/>
<stop offset="0.3684" stop-color="#915651"/>
<stop offset="0.5736" stop-color="#C06252"/>
<stop offset="0.7538" stop-color="#E36B52"/>
<stop offset="0.9021" stop-color="#F77152"/>
<stop offset="1" stop-color="#FF7352"/>
</linearGradient>
<linearGradient id="paint70_linear_409_156629" x1="121.939" y1="132.147" x2="131.782" y2="87.0891" gradientUnits="userSpaceOnUse">
<stop stop-color="#2A3A51"/>
<stop offset="0.1451" stop-color="#554551"/>
<stop offset="0.3684" stop-color="#915651"/>
<stop offset="0.5736" stop-color="#C06252"/>
<stop offset="0.7538" stop-color="#E36B52"/>
<stop offset="0.9021" stop-color="#F77152"/>
<stop offset="1" stop-color="#FF7352"/>
</linearGradient>
<linearGradient id="paint71_linear_409_156629" x1="123.849" y1="116.139" x2="129.896" y2="71.6279" gradientUnits="userSpaceOnUse">
<stop stop-color="#2A3A51"/>
<stop offset="0.1451" stop-color="#554551"/>
<stop offset="0.3684" stop-color="#915651"/>
<stop offset="0.5736" stop-color="#C06252"/>
<stop offset="0.7538" stop-color="#E36B52"/>
<stop offset="0.9021" stop-color="#F77152"/>
<stop offset="1" stop-color="#FF7352"/>
</linearGradient>
</defs>
</svg>
