<svg width="39" height="40" viewBox="0 0 39 40" fill="none" xmlns="http://www.w3.org/2000/svg">
<path d="M21.7183 38.827H17.2916C17.0548 38.8252 16.8256 38.741 16.6417 38.5881C16.4577 38.4352 16.3301 38.2227 16.2796 37.9857L15.8002 35.5342C14.3216 35.157 12.9065 34.5548 11.6021 33.7477L9.57289 35.1299C9.3755 35.265 9.13877 35.3264 8.90242 35.3038C8.66608 35.2813 8.4445 35.1761 8.27488 35.006L5.14519 31.7947C4.97643 31.6195 4.87223 31.3898 4.85035 31.1447C4.82847 30.8996 4.89027 30.6542 5.02521 30.4506L6.36976 28.3843C5.58029 27.0479 4.99289 25.5967 4.62754 24.0801L2.23269 23.5895C2.00005 23.5386 1.79129 23.408 1.64086 23.2192C1.49043 23.0304 1.40733 22.7947 1.40527 22.551V18.0158C1.40699 17.7731 1.48923 17.5383 1.63847 17.3499C1.78771 17.1614 1.99507 17.0306 2.22648 16.9789L4.62392 16.4862C4.98934 14.9698 5.57656 13.5189 6.36562 12.1825L5.01384 10.1109C4.88172 9.90857 4.82164 9.66581 4.84368 9.42343C4.86571 9.18105 4.96853 8.95384 5.13485 8.77999L8.2692 5.5693C8.43986 5.39612 8.6639 5.28899 8.90307 5.26619C9.14224 5.24338 9.38172 5.30632 9.58065 5.44426L11.5975 6.82444C12.9027 6.01591 14.3191 5.41278 15.7992 5.03524L16.2781 2.58748C16.3277 2.34914 16.4552 2.13526 16.6394 1.98114C16.8237 1.82702 17.0538 1.74188 17.2916 1.73978H21.7183C21.9551 1.74154 22.1844 1.82579 22.3683 1.97869C22.5522 2.13159 22.6799 2.34404 22.7303 2.58113L23.2097 5.03259C24.6923 5.40855 26.1108 6.01213 27.4171 6.82285L29.4339 5.43737C29.6314 5.30202 29.8684 5.24046 30.105 5.26304C30.3415 5.28562 30.5633 5.39096 30.733 5.56135L33.8673 8.77205C34.0369 8.94658 34.1418 9.17618 34.1641 9.42138C34.1864 9.66658 34.1246 9.91207 33.9894 10.1157L32.6448 12.1867C33.4329 13.5227 34.0208 14.9724 34.3886 16.4873L36.7731 16.9773C37.0065 17.0273 37.2162 17.1576 37.3675 17.3465C37.5187 17.5353 37.6024 17.7715 37.6047 18.0158V22.551C37.6029 22.7937 37.5207 23.0285 37.3715 23.2169C37.2222 23.4054 37.0149 23.5362 36.7835 23.5879L34.3907 24.0795C34.0228 25.5944 33.435 27.0441 32.6469 28.3801L33.9966 30.4591C34.1284 30.6614 34.1882 30.9039 34.1661 31.1461C34.144 31.3882 34.0412 31.6152 33.8751 31.7889L30.7407 35.0001C30.57 35.1732 30.346 35.2803 30.1069 35.3031C29.8677 35.3259 29.6283 35.263 29.4293 35.1252L27.4125 33.7439C26.1069 34.5544 24.6893 35.158 23.2077 35.5342L22.7319 37.9793C22.6823 38.2177 22.5548 38.4315 22.3705 38.5856C22.1862 38.7398 21.9562 38.8249 21.7183 38.827ZM11.5928 32.5873C11.6896 32.5871 11.7845 32.615 11.8664 32.6679C13.245 33.5651 14.7644 34.2119 16.3577 34.58C16.4552 34.6026 16.5442 34.6537 16.6139 34.727C16.6837 34.8003 16.7312 34.8928 16.7507 34.9933L17.2922 37.7674H21.7136L22.2608 34.9933C22.2803 34.8928 22.3279 34.8002 22.3978 34.7269C22.4676 34.6535 22.5567 34.6025 22.6543 34.58C24.2476 34.2138 25.7667 33.567 27.1441 32.6684C27.23 32.6147 27.3289 32.5869 27.4295 32.5881C27.5301 32.5893 27.6283 32.6195 27.7129 32.6753L30.0085 34.2489L33.1361 31.0456L31.6281 28.7276C31.6087 28.7035 31.5914 28.6776 31.5764 28.6503C31.5314 28.5674 31.5089 28.4738 31.5113 28.379C31.5136 28.2842 31.5408 28.1918 31.5899 28.1115C32.4658 26.6991 33.0972 25.1424 33.4562 23.51C33.4783 23.4101 33.5281 23.3189 33.5997 23.2475C33.6713 23.176 33.7616 23.1273 33.8596 23.1073L36.5704 22.5505V18.0158L33.8627 17.4595C33.7647 17.4395 33.6744 17.3908 33.6028 17.3193C33.5312 17.2479 33.4814 17.1567 33.4593 17.0568C33.1003 15.4244 32.4689 13.8677 31.593 12.4553C31.5435 12.3752 31.5159 12.2829 31.5131 12.1882C31.5103 12.0934 31.5323 11.9996 31.577 11.9165C31.595 11.8827 31.6166 11.851 31.6416 11.8222L33.1351 9.52121L30.009 6.31581L27.715 7.89149C27.6304 7.94736 27.5322 7.97765 27.4315 7.97887C27.3309 7.98009 27.232 7.95219 27.1461 7.89838C25.7688 6.99977 24.2497 6.35298 22.6564 5.98679C22.5588 5.96428 22.4697 5.91326 22.3998 5.83991C22.33 5.76656 22.2824 5.67403 22.2628 5.57354L21.7178 2.79941H17.2916L16.7492 5.57354C16.7296 5.67396 16.6821 5.76644 16.6124 5.83979C16.5426 5.91313 16.4536 5.96419 16.3561 5.98679C14.7629 6.35486 13.2435 7.00172 11.8648 7.89891C11.7803 7.95375 11.682 7.98229 11.582 7.98107C11.4819 7.97985 11.3844 7.94891 11.3012 7.89202L8.99991 6.31846L5.87176 9.52121L7.41024 11.8778C7.46577 11.9631 7.49596 12.0631 7.49715 12.1656C7.49835 12.2681 7.47049 12.3687 7.41696 12.4553C6.54128 13.8667 5.91137 15.4231 5.55527 17.0552C5.53239 17.1608 5.47851 17.2567 5.40085 17.33C5.32319 17.4034 5.22549 17.4506 5.12088 17.4653L2.43954 18.0163V22.551L5.13847 23.1052C5.23929 23.1235 5.33264 23.1717 5.40686 23.244C5.48107 23.3163 5.53287 23.4093 5.55579 23.5116C5.91191 25.1437 6.54182 26.7001 7.41748 28.1115C7.47098 28.198 7.49886 28.2985 7.49776 28.4009C7.49666 28.5033 7.46662 28.6031 7.41127 28.6884L5.88055 31.0456L9.00146 34.2515L11.2639 32.7055C11.3569 32.6291 11.4726 32.5874 11.5918 32.5873H11.5928Z" fill="#C3D0D5"/>
<path d="M24.0719 30.3181C23.9548 30.3181 23.8412 30.2775 23.7497 30.2028C23.6581 30.128 23.594 30.0237 23.5678 29.9068C23.5416 29.7899 23.5549 29.6674 23.6055 29.5592C23.6561 29.4511 23.7411 29.3638 23.8464 29.3115C24.2917 29.0916 24.7176 28.8324 25.1191 28.5369C25.2305 28.4606 25.3665 28.4316 25.4984 28.456C25.6303 28.4804 25.7477 28.5564 25.8261 28.6678C25.9044 28.7792 25.9374 28.9174 25.9182 29.0533C25.899 29.1892 25.829 29.3122 25.7231 29.3962C25.2729 29.727 24.7957 30.0174 24.2968 30.2641C24.2268 30.2993 24.1499 30.3177 24.0719 30.3181Z" fill="#C3D0D5"/>
<path d="M19.5053 31.4096C17.3575 31.4096 15.2578 30.7571 13.4719 29.5345C11.6861 28.3119 10.2941 26.5743 9.47217 24.5412C8.65021 22.5082 8.43515 20.2711 8.85418 18.1128C9.27321 15.9546 10.3075 13.9721 11.8263 12.416C13.3451 10.86 15.2801 9.80035 17.3867 9.37105C19.4933 8.94174 21.6768 9.16208 23.6612 10.0042C25.6456 10.8463 27.3416 12.2724 28.5349 14.1021C29.7282 15.9318 30.3651 18.0829 30.3651 20.2834C30.3651 20.4694 30.3595 20.6495 30.3486 20.8355C30.338 20.9749 30.2749 21.1046 30.1725 21.1972C30.0702 21.2898 29.9368 21.3379 29.8004 21.3314C29.6636 21.3227 29.5357 21.2586 29.4449 21.1533C29.3541 21.048 29.3079 20.91 29.3164 20.7698C29.3262 20.6061 29.3309 20.4471 29.3309 20.2834C29.3309 18.2925 28.7546 16.3462 27.675 14.6908C26.5953 13.0353 25.0608 11.7451 23.2654 10.9832C21.47 10.2213 19.4944 10.0219 17.5885 10.4103C15.6825 10.7987 13.9317 11.7575 12.5576 13.1653C11.1835 14.5731 10.2477 16.3668 9.86858 18.3195C9.48946 20.2723 9.68403 22.2963 10.4277 24.1357C11.1714 25.9751 12.4307 27.5473 14.0465 28.6534C15.6624 29.7596 17.562 30.35 19.5053 30.35C19.6605 30.35 19.8156 30.3452 19.9708 30.3351C20.0387 30.3308 20.1067 30.3402 20.1711 30.3628C20.2355 30.3854 20.2949 30.4208 20.3459 30.4669C20.3969 30.513 20.4386 30.569 20.4685 30.6316C20.4984 30.6942 20.516 30.7623 20.5202 30.8318C20.5245 30.9014 20.5153 30.9712 20.4932 31.0371C20.4711 31.103 20.4366 31.1639 20.3916 31.2162C20.3466 31.2684 20.2919 31.3111 20.2308 31.3418C20.1697 31.3724 20.1033 31.3904 20.0354 31.3948C19.858 31.4043 19.6817 31.4096 19.5053 31.4096Z" fill="#C3D0D5"/>
<path d="M27.98 26.8744C27.8848 26.8744 27.7914 26.8474 27.7102 26.7965C27.629 26.7456 27.563 26.6728 27.5197 26.5859C27.4763 26.4991 27.4572 26.4016 27.4644 26.3044C27.4716 26.2071 27.5049 26.1137 27.5606 26.0346C27.8483 25.6248 28.1019 25.191 28.3187 24.7376C28.38 24.6126 28.4871 24.5174 28.6166 24.4729C28.7461 24.4285 28.8876 24.4383 29.01 24.5003C29.1325 24.5623 29.226 24.6714 29.2702 24.8038C29.3144 24.9363 29.3057 25.0812 29.246 25.2071C29.0038 25.7128 28.7207 26.1968 28.3994 26.654C28.3515 26.7221 28.2886 26.7777 28.2156 26.816C28.1427 26.8543 28.062 26.8743 27.98 26.8744Z" fill="#C3D0D5"/>
<path d="M22.4904 23.0009C22.3846 23.0008 22.2814 22.9675 22.1947 22.9055C22.108 22.8435 22.042 22.7557 22.0054 22.654C21.9689 22.5523 21.9637 22.4416 21.9905 22.3368C22.0173 22.232 22.0748 22.1381 22.1553 22.0679L24.2021 20.2834L22.1553 18.499C22.1036 18.4538 22.061 18.3986 22.0302 18.3365C21.9993 18.2744 21.9806 18.2068 21.9753 18.1373C21.9699 18.0679 21.978 17.998 21.999 17.9318C22.0199 17.8655 22.0535 17.8041 22.0976 17.7512C22.1418 17.6982 22.1957 17.6546 22.2562 17.623C22.3168 17.5913 22.3829 17.5722 22.4506 17.5667C22.5184 17.5613 22.5866 17.5695 22.6513 17.591C22.7159 17.6125 22.7758 17.6469 22.8275 17.6921L25.3367 19.8797C25.3938 19.9294 25.4397 19.9913 25.4712 20.061C25.5026 20.1307 25.5189 20.2066 25.5189 20.2834C25.5189 20.3602 25.5026 20.4361 25.4712 20.5058C25.4397 20.5755 25.3938 20.6374 25.3367 20.6872L22.8275 22.8748C22.7335 22.9567 22.6139 23.0014 22.4904 23.0009Z" fill="#C3D0D5"/>
<path d="M16.5202 23.0008C16.3972 23.001 16.2782 22.9563 16.1845 22.8747L13.6754 20.6871C13.6183 20.6374 13.5724 20.5755 13.5409 20.5058C13.5095 20.4361 13.4932 20.3602 13.4932 20.2834C13.4932 20.2066 13.5095 20.1307 13.5409 20.061C13.5724 19.9913 13.6183 19.9294 13.6754 19.8797L16.1845 17.6921C16.289 17.6007 16.4246 17.5556 16.5615 17.5667C16.6983 17.5778 16.8253 17.6441 16.9145 17.7511C17.0036 17.8581 17.0476 17.997 17.0368 18.1373C17.026 18.2775 16.9613 18.4076 16.8568 18.499L14.8085 20.2834L16.8553 22.0678C16.9357 22.1381 16.9932 22.232 17.02 22.3368C17.0468 22.4416 17.0416 22.5523 17.0051 22.654C16.9686 22.7557 16.9025 22.8434 16.8158 22.9054C16.7291 22.9675 16.6259 23.0008 16.5202 23.0008Z" fill="#C3D0D5"/>
<path d="M17.7624 25.6266C17.701 25.6264 17.64 25.6151 17.5824 25.5932C17.4539 25.5444 17.3495 25.4452 17.2923 25.3175C17.2351 25.1899 17.2297 25.0441 17.2773 24.9124L20.7633 15.2861C20.7871 15.2209 20.8232 15.1611 20.8695 15.1102C20.9158 15.0592 20.9715 15.0181 21.0333 14.9892C21.0951 14.9603 21.1619 14.9442 21.2298 14.9417C21.2977 14.9392 21.3655 14.9505 21.4291 14.9749C21.4928 14.9992 21.5512 15.0362 21.6009 15.0836C21.6506 15.1311 21.6907 15.1881 21.7189 15.2515C21.7471 15.3148 21.7629 15.3832 21.7653 15.4528C21.7677 15.5224 21.7567 15.5918 21.7329 15.657L18.247 25.2806C18.2103 25.3821 18.1442 25.4696 18.0576 25.5315C17.971 25.5933 17.868 25.6265 17.7624 25.6266Z" fill="#C3D0D5"/>
</svg>
