<svg width="35" height="35" viewBox="0 0 35 35" fill="none" xmlns="http://www.w3.org/2000/svg">
<path d="M30.8165 12.4404L31.1209 12.6588H31.4047V12.1125L32.2994 12.0258L33.1493 12.6588H34.5462L34.6443 12.569C34.5043 12.0981 34.3468 11.6355 34.1703 11.182L33.2588 11.1972L32.8016 10.6951L32.7133 9.88783L32.2446 10.1435L31.9935 11.1303L31.3172 10.4105L31.2898 9.73034L30.637 9.16808L30.3966 8.92842H29.6395L29.8777 9.60328L30.7891 10.1115L30.9474 10.2797L30.7496 10.3786L30.7587 10.9134L30.3144 11.0991L29.9355 11.0162L29.6981 10.6806L30.3151 10.7133L30.4818 10.4889L29.1161 9.56752L29.0111 9.17493L28.4564 9.67708L27.8942 9.56143L27.0382 10.6745L26.8693 11.1105L26.3215 11.1599L25.5112 11.1653L25.0266 10.9385L24.8835 9.97609L25.0578 9.5173L25.8825 9.33699L26.7818 9.5173L26.8921 9.01972L26.5102 8.92918L26.6403 8.15388L27.5457 8.01237L28.1787 7.11839L28.8323 7.00883L29.4219 7.09632H29.6395L29.5193 6.25636L28.8026 6.54548L28.55 5.91779L28.1338 5.85996L28.0555 5.43009L28.3948 5.06032L29.202 4.74382L29.4097 4.37253C26.3246 1.65482 22.2807 0 17.8557 0C14.0157 0 10.4634 1.24625 7.5745 3.35148L8.45707 3.34464L8.85042 3.56224L9.59148 3.72201L9.6493 4.01341L10.8278 4.05678L10.6681 3.67864L9.62115 3.64897L9.86766 3.41692L9.78169 3.13997H8.83521L9.86766 2.36924H10.8567L11.3216 3.00987L12.0931 3.05324L12.558 2.60206L12.9072 2.77629L12.2666 3.4017C12.2666 3.4017 11.3802 3.41768 11.4236 3.41768C11.4669 3.41768 11.4966 4.02787 11.4966 4.02787L12.5717 3.9982L12.6881 3.70832L13.4291 3.66419L13.5166 3.22823L13.0807 3.15443L13.226 2.76184L13.56 2.66065L14.7233 2.71847L14.0819 3.30051L14.1854 3.75092L14.8542 3.85288L14.8108 3.03878L15.4507 2.70401L16.5851 2.57315L18.2277 3.30051V3.92592L18.7512 4.05678L18.4887 4.55132H17.7469L17.527 5.11815L15.8341 4.71871L17.1664 4.00885L16.6589 3.57745L15.51 3.72277L15.4096 3.82701L15.4058 3.82549L15.3883 3.84983L15.0573 4.19373L14.5103 4.23862L14.5537 4.511L14.7446 4.59013L14.737 4.67991L14.2919 4.74305L14.2592 5.00098L13.8339 5.02304L13.7571 4.51024L12.9939 4.74229L11.4342 5.6553L11.6092 6.2982L12.0452 6.58276L12.9171 6.70297V7.69434L13.3203 7.62967L13.6916 6.85514L14.6191 6.56145V5.37227L15.1349 4.98272L16.3819 5.27716L16.2944 6.06311H16.6292L17.546 5.61269L17.5902 6.64438L18.2574 7.05143L18.2293 7.66314L17.5902 7.88074L17.6335 8.08313L18.4042 8.43387L18.3883 8.85538L18.1653 8.8744C18.1646 8.86755 18.1631 8.86298 18.1631 8.86298L17.1907 8.56321L17.1496 8.25127H17.1489L17.4334 8.05574V7.77118L17.1276 7.69434L17.0515 7.95683L16.5151 8.03976L16.4618 8.02226V8.04889L16.2762 8.07704L16.1248 7.77118L15.9498 7.69434H15.5678L15.3944 7.83738V8.15388L15.7208 8.26268L16.0434 8.30833L15.9711 8.34029L15.6766 8.66669L15.5473 8.50387L15.2628 8.42855L14.4875 9.15743L14.5887 9.24036L13.4444 9.87414L12.3678 10.9941L12.294 11.4924L11.2151 12.2015L10.6802 12.7394L10.7396 13.8153L9.99777 13.4698L10.0031 12.8406L7.93894 12.8414L6.86997 13.3824L6.40586 14.2383L6.22173 14.917L6.52226 15.5751L7.36451 15.6778L8.70282 14.7831L8.81999 15.2266L8.41142 15.9981L9.43018 16.1723L9.53213 17.7458L10.9283 17.9831L11.8154 16.9575L12.892 17.1766L13.2701 17.7024L14.3026 17.6415L14.3315 17.3364L14.8991 17.6118L15.5389 18.6146L16.6437 18.6298L17.0515 19.3435L17.1093 20.2154L18.3312 20.6803L19.8727 20.6963L20.3238 21.4366L21.0071 21.6557L20.8762 22.2682L20.1275 23.2192L19.9092 25.326L19.2328 25.8601L18.23 25.8304L17.896 26.4117L18.144 27.5042L17.0522 28.8996L16.7038 29.5402L15.6637 30.0393L14.9797 30.1436L14.9516 30.4335L15.4317 30.5712L15.3738 30.8839L14.944 31.2978L15.2049 31.6272L15.7223 31.6417L15.6934 32.0403L15.5557 32.4337L15.5115 32.7533L16.2769 33.3977L16.175 33.7324L15.1334 33.7127L14.0972 32.8088L13.2899 31.3898L13.4025 30.0203L12.7916 29.2055L13.0388 27.8246L12.6759 27.7234V24.7272C12.6759 24.7272 11.6579 23.9557 11.5993 23.9557C11.5407 23.9557 11.0607 23.8248 11.0607 23.8248L10.9587 23.2588L9.63561 21.6001L9.76647 21.0044L9.80984 20.0298L10.7259 19.3892L10.595 18.2981L9.25747 18.1977L8.21056 17.0047L7.46874 16.7993L6.98942 16.711L7.04724 16.2751L6.43629 16.1883V16.4356L4.90853 16.0544L4.29377 15.114L4.54409 14.6583L3.57707 13.2469L3.4112 12.2145H3.01861L3.14872 13.2173L3.81749 14.2497L3.74445 14.6575L3.17763 14.57L2.47994 13.3808V11.9969L1.75258 11.6476V10.6517C0.854793 12.7562 0.356445 15.0706 0.356445 17.5C0.356445 27.1497 8.20676 35 17.8564 35C23.3269 35 28.2175 32.4755 31.429 28.5314H30.8515V27.368L30.1835 26.4687V25.0696L29.6738 24.5613L29.6289 23.9793L30.2771 22.7429L29.0499 20.5753L29.1937 19.1046L28.0889 18.9905L27.6819 18.5834H26.9393L26.5619 18.9319H25.2525L25.2084 19.0483H24.4803L22.8095 17.1439L22.8232 15.6603L23.0994 15.5591L23.2021 14.9915H22.8095L22.649 14.3958L24.5822 13.0004V12.0113L25.5287 11.4856L25.9122 11.5236H26.6905L27.2999 11.1965L29.2637 11.0435V12.0471L30.8165 12.4404ZM25.9076 6.20082L26.0674 5.95431L26.6426 5.8379L26.7864 6.53635L27.0922 7.03013L27.2954 7.26371L27.6659 7.40827L27.3167 7.82368L26.6403 7.88835H26.1321L26.1891 7.28501L26.6122 7.19751L26.5764 6.91372L26.1823 6.66645L25.9069 6.47776L25.9076 6.20082ZM24.9634 7.29186L25.3126 6.73188L25.7836 6.62232L26.1184 6.76764L26.0879 7.14578L25.3682 7.65478H24.9619V7.29186H24.9634ZM15.4552 9.44426L15.0908 9.4747L15.1106 9.22134L15.2734 9.01819L15.4925 9.19014L15.4552 9.44426ZM16.7327 8.99689L16.4839 9.01819L16.4337 9.25862L16.242 9.37807L15.9346 9.40394C15.9239 9.33166 15.9178 9.27688 15.9178 9.27688H15.7984V9.01819H16.2998L16.4032 8.75114L16.6026 8.74734L16.8301 8.79451L16.7327 8.99689Z" fill="#C3D0D5"/>
</svg>
