<svg width="35" height="35" viewBox="0 0 35 35" fill="none" xmlns="http://www.w3.org/2000/svg">
<path d="M30.8156 12.4404L31.1199 12.6588H31.4037V12.1125L32.2984 12.0258L33.1483 12.6588H34.5452L34.6433 12.569C34.5033 12.0981 34.3458 11.6355 34.1693 11.182L33.2578 11.1972L32.8006 10.6951L32.7123 9.88783L32.2436 10.1435L31.9926 11.1303L31.3162 10.4105L31.2888 9.73034L30.636 9.16808L30.3956 8.92842H29.6385L29.8767 9.60328L30.7882 10.1115L30.9464 10.2797L30.7486 10.3786L30.7577 10.9134L30.3134 11.0991L29.9345 11.0162L29.6971 10.6806L30.3142 10.7133L30.4808 10.4889L29.1151 9.56752L29.0101 9.17493L28.4554 9.67708L27.8932 9.56143L27.0372 10.6745L26.8683 11.1105L26.3205 11.1599L25.5102 11.1653L25.0256 10.9385L24.8826 9.97609L25.0568 9.5173L25.8815 9.33699L26.7808 9.5173L26.8912 9.01972L26.5092 8.92918L26.6393 8.15388L27.5447 8.01237L28.1777 7.11839L28.8313 7.00883L29.4209 7.09632H29.6385L29.5183 6.25636L28.8016 6.54548L28.549 5.91779L28.1329 5.85996L28.0545 5.43009L28.3938 5.06032L29.2011 4.74382L29.4088 4.37253C26.3236 1.65482 22.2797 0 17.8547 0C14.0148 0 10.4624 1.24625 7.57352 3.35148L8.45609 3.34464L8.84945 3.56224L9.5905 3.72201L9.64832 4.01341L10.8269 4.05678L10.6671 3.67864L9.62017 3.64897L9.86668 3.41692L9.78071 3.13997H8.83423L9.86668 2.36924H10.8558L11.3206 3.00987L12.0921 3.05324L12.557 2.60206L12.9062 2.77629L12.2656 3.4017C12.2656 3.4017 11.3792 3.41768 11.4226 3.41768C11.466 3.41768 11.4956 4.02787 11.4956 4.02787L12.5707 3.9982L12.6871 3.70832L13.4282 3.66419L13.5157 3.22823L13.0797 3.15443L13.225 2.76184L13.559 2.66065L14.7223 2.71847L14.081 3.30051L14.1844 3.75092L14.8532 3.85288L14.8098 3.03878L15.4497 2.70401L16.5841 2.57315L18.2268 3.30051V3.92592L18.7502 4.05678L18.4877 4.55132H17.7459L17.526 5.11815L15.8332 4.71871L17.1654 4.00885L16.6579 3.57745L15.509 3.72277L15.4086 3.82701L15.4048 3.82549L15.3873 3.84983L15.0564 4.19373L14.5093 4.23862L14.5527 4.511L14.7436 4.59013L14.736 4.67991L14.2909 4.74305L14.2582 5.00098L13.8329 5.02304L13.7561 4.51024L12.993 4.74229L11.4332 5.6553L11.6082 6.2982L12.0442 6.58276L12.9161 6.70297V7.69434L13.3194 7.62967L13.6906 6.85514L14.6181 6.56145V5.37227L15.134 4.98272L16.381 5.27716L16.2935 6.06311H16.6282L17.545 5.61269L17.5892 6.64438L18.2564 7.05143L18.2283 7.66314L17.5892 7.88074L17.6325 8.08313L18.4033 8.43387L18.3873 8.85538L18.1644 8.8744C18.1636 8.86755 18.1621 8.86298 18.1621 8.86298L17.1897 8.56321L17.1487 8.25127H17.1479L17.4324 8.05574V7.77118L17.1266 7.69434L17.0505 7.95683L16.5141 8.03976L16.4609 8.02226V8.04889L16.2752 8.07704L16.1238 7.77118L15.9488 7.69434H15.5669L15.3934 7.83738V8.15388L15.7198 8.26268L16.0424 8.30833L15.9701 8.34029L15.6757 8.66669L15.5463 8.50387L15.2618 8.42855L14.4865 9.15743L14.5877 9.24036L13.4434 9.87414L12.3668 10.9941L12.293 11.4924L11.2141 12.2015L10.6793 12.7394L10.7386 13.8153L9.99679 13.4698L10.0021 12.8406L7.93796 12.8414L6.86899 13.3824L6.40488 14.2383L6.22076 14.917L6.52129 15.5751L7.36353 15.6778L8.70184 14.7831L8.81901 15.2266L8.41044 15.9981L9.4292 16.1723L9.53116 17.7458L10.9273 17.9831L11.8144 16.9575L12.891 17.1766L13.2691 17.7024L14.3016 17.6415L14.3305 17.3364L14.8981 17.6118L15.538 18.6146L16.6427 18.6298L17.0505 19.3435L17.1083 20.2154L18.3302 20.6803L19.8717 20.6963L20.3229 21.4366L21.0061 21.6557L20.8752 22.2682L20.1266 23.2192L19.9082 25.326L19.2318 25.8601L18.229 25.8304L17.895 26.4117L18.1431 27.5042L17.0513 28.8996L16.7028 29.5402L15.6627 30.0393L14.9787 30.1436L14.9506 30.4335L15.4307 30.5712L15.3729 30.8839L14.943 31.2978L15.204 31.6272L15.7213 31.6417L15.6924 32.0403L15.5547 32.4337L15.5106 32.7533L16.276 33.3977L16.174 33.7324L15.1324 33.7127L14.0962 32.8088L13.2889 31.3898L13.4015 30.0203L12.7906 29.2055L13.0379 27.8246L12.6749 27.7234V24.7272C12.6749 24.7272 11.6569 23.9557 11.5983 23.9557C11.5398 23.9557 11.0597 23.8248 11.0597 23.8248L10.9577 23.2588L9.63463 21.6001L9.76549 21.0044L9.80886 20.0298L10.7249 19.3892L10.594 18.2981L9.25649 18.1977L8.20958 17.0047L7.46777 16.7993L6.98844 16.711L7.04626 16.2751L6.43531 16.1883V16.4356L4.90755 16.0544L4.2928 15.114L4.54311 14.6583L3.57609 13.2469L3.41023 12.2145H3.01764L3.14774 13.2173L3.81651 14.2497L3.74347 14.6575L3.17665 14.57L2.47896 13.3808V11.9969L1.7516 11.6476V10.6517C0.853817 12.7562 0.355469 15.0706 0.355469 17.5C0.355469 27.1497 8.20578 35 17.8555 35C23.3259 35 28.2165 32.4755 31.428 28.5314H30.8506V27.368L30.1825 26.4687V25.0696L29.6728 24.5613L29.6279 23.9793L30.2761 22.7429L29.0489 20.5753L29.1927 19.1046L28.088 18.9905L27.6809 18.5834H26.9383L26.561 18.9319H25.2516L25.2074 19.0483H24.4793L22.8085 17.1439L22.8222 15.6603L23.0984 15.5591L23.2011 14.9915H22.8085L22.648 14.3958L24.5813 13.0004V12.0113L25.5277 11.4856L25.9112 11.5236H26.6895L27.299 11.1965L29.2627 11.0435V12.0471L30.8156 12.4404ZM25.9066 6.20082L26.0664 5.95431L26.6416 5.8379L26.7854 6.53635L27.0913 7.03013L27.2944 7.26371L27.6649 7.40827L27.3157 7.82368L26.6393 7.88835H26.1311L26.1882 7.28501L26.6112 7.19751L26.5754 6.91372L26.1813 6.66645L25.9059 6.47776L25.9066 6.20082ZM24.9624 7.29186L25.3117 6.73188L25.7826 6.62232L26.1174 6.76764L26.087 7.14578L25.3672 7.65478H24.9609V7.29186H24.9624ZM15.4543 9.44426L15.0898 9.4747L15.1096 9.22134L15.2724 9.01819L15.4915 9.19014L15.4543 9.44426ZM16.7317 8.99689L16.4829 9.01819L16.4327 9.25862L16.241 9.37807L15.9336 9.40394C15.9229 9.33166 15.9169 9.27688 15.9169 9.27688H15.7974V9.01819H16.2988L16.4023 8.75114L16.6016 8.74734L16.8291 8.79451L16.7317 8.99689Z" fill="url(#paint0_linear_375_83730)"/>
<defs>
<linearGradient id="paint0_linear_375_83730" x1="14.0408" y1="23.8882" x2="25.1846" y2="6.04958" gradientUnits="userSpaceOnUse">
<stop stop-color="#2A3A51"/>
<stop offset="0.1451" stop-color="#554551"/>
<stop offset="0.3684" stop-color="#915651"/>
<stop offset="0.5736" stop-color="#C06252"/>
<stop offset="0.7538" stop-color="#E36B52"/>
<stop offset="0.9021" stop-color="#F77152"/>
<stop offset="1" stop-color="#FF7352"/>
</linearGradient>
</defs>
</svg>
