<svg width="29" height="35" viewBox="0 0 29 35" fill="none" xmlns="http://www.w3.org/2000/svg">
<path d="M23.8408 1.98216L21.4731 3.95177L19.1056 1.98216H14.0243V-0.0683594H28.9237V1.98216H23.8408Z" fill="url(#paint0_linear_375_83457)"/>
<path d="M19.4271 11.3953C19.481 14.4656 18.2503 17.9102 16.0564 20.7533C14.7156 22.4909 13.0354 23.8524 11.0621 24.8009C9.46981 25.5662 7.68044 26.0685 5.74341 26.2939C2.99782 26.6135 0.755838 26.284 0.046875 26.1569L15.6133 8.41948C16.4748 9.82272 17.826 10.8946 19.4271 11.3953Z" fill="url(#paint1_linear_375_83457)"/>
<path d="M17.6799 22.0062C20.0695 18.9095 21.4437 15.1427 21.4779 11.7061C22.5409 11.7055 23.5481 11.4623 24.4472 11.0286C24.7986 12.3336 24.9661 13.6773 24.9348 14.9961C24.8785 17.3535 24.2138 19.5984 22.9591 21.6687C22.9372 21.7047 22.9147 21.7402 22.8926 21.776C21.4391 23.8928 19.2447 25.7019 16.3448 27.1185C13.0525 28.7268 12.7695 30.922 12.7695 30.922V34.9318H10.719V30.8823H9.24685V29.8569C9.24685 29.2317 8.873 28.6542 8.29435 28.3853C8.0842 28.2875 7.87699 28.1786 7.67645 28.0614C11.8167 27.225 15.2515 25.1529 17.6799 22.0062Z" fill="url(#paint2_linear_375_83457)"/>
<path d="M17.2533 28.9569C17.5657 28.8026 17.8712 28.644 18.1694 28.4814C18.1179 28.7182 18.081 28.9585 18.0594 29.2015L17.9107 30.8822H17.1424V34.9317H15.0919V30.8822H15.0783C15.6044 30.0702 16.3547 29.401 17.2533 28.9569Z" fill="url(#paint3_linear_375_83457)"/>
<path d="M21.4731 9.6555C18.8153 9.6555 16.6532 7.49336 16.6532 4.83561V2.60965L21.4731 6.61937L26.293 2.60965V4.83561C26.293 7.49336 24.1308 9.6555 21.4731 9.6555Z" fill="url(#paint4_linear_375_83457)"/>
<defs>
<linearGradient id="paint0_linear_375_83457" x1="11.5725" y1="23.8199" x2="23.4392" y2="7.82193" gradientUnits="userSpaceOnUse">
<stop stop-color="#2A3A51"/>
<stop offset="0.1451" stop-color="#554551"/>
<stop offset="0.3684" stop-color="#915651"/>
<stop offset="0.5736" stop-color="#C06252"/>
<stop offset="0.7538" stop-color="#E36B52"/>
<stop offset="0.9021" stop-color="#F77152"/>
<stop offset="1" stop-color="#FF7352"/>
</linearGradient>
<linearGradient id="paint1_linear_375_83457" x1="11.5725" y1="23.8199" x2="23.4392" y2="7.82193" gradientUnits="userSpaceOnUse">
<stop stop-color="#2A3A51"/>
<stop offset="0.1451" stop-color="#554551"/>
<stop offset="0.3684" stop-color="#915651"/>
<stop offset="0.5736" stop-color="#C06252"/>
<stop offset="0.7538" stop-color="#E36B52"/>
<stop offset="0.9021" stop-color="#F77152"/>
<stop offset="1" stop-color="#FF7352"/>
</linearGradient>
<linearGradient id="paint2_linear_375_83457" x1="11.5725" y1="23.8199" x2="23.4392" y2="7.82193" gradientUnits="userSpaceOnUse">
<stop stop-color="#2A3A51"/>
<stop offset="0.1451" stop-color="#554551"/>
<stop offset="0.3684" stop-color="#915651"/>
<stop offset="0.5736" stop-color="#C06252"/>
<stop offset="0.7538" stop-color="#E36B52"/>
<stop offset="0.9021" stop-color="#F77152"/>
<stop offset="1" stop-color="#FF7352"/>
</linearGradient>
<linearGradient id="paint3_linear_375_83457" x1="11.5725" y1="23.8199" x2="23.4392" y2="7.82193" gradientUnits="userSpaceOnUse">
<stop stop-color="#2A3A51"/>
<stop offset="0.1451" stop-color="#554551"/>
<stop offset="0.3684" stop-color="#915651"/>
<stop offset="0.5736" stop-color="#C06252"/>
<stop offset="0.7538" stop-color="#E36B52"/>
<stop offset="0.9021" stop-color="#F77152"/>
<stop offset="1" stop-color="#FF7352"/>
</linearGradient>
<linearGradient id="paint4_linear_375_83457" x1="11.5725" y1="23.8199" x2="23.4392" y2="7.82193" gradientUnits="userSpaceOnUse">
<stop stop-color="#2A3A51"/>
<stop offset="0.1451" stop-color="#554551"/>
<stop offset="0.3684" stop-color="#915651"/>
<stop offset="0.5736" stop-color="#C06252"/>
<stop offset="0.7538" stop-color="#E36B52"/>
<stop offset="0.9021" stop-color="#F77152"/>
<stop offset="1" stop-color="#FF7352"/>
</linearGradient>
</defs>
</svg>
