<svg width="35" height="35" viewBox="0 0 35 35" fill="none" xmlns="http://www.w3.org/2000/svg">
<path d="M25.5693 16.5258C25.1133 12.805 22.1767 9.87582 18.4548 9.42923C18.1343 9.39266 17.812 9.37434 17.4895 9.37427C14.2001 9.37933 11.2384 11.3672 9.98757 14.4094C8.73673 17.4516 9.44363 20.9479 11.7781 23.2652C13.0195 24.4541 13.7304 26.0924 13.7507 27.8111V28.7499H21.2507V27.8063C21.2564 26.1201 21.9424 24.5075 23.1532 23.3339C24.9821 21.5694 25.8767 19.0488 25.5693 16.5261V16.5258H25.5693Z" fill="url(#paint0_linear_375_83646)"/>
<path d="M17.5003 35C18.2946 34.9991 19.0025 34.4986 19.2682 33.75H15.7324C15.9981 34.4986 16.7059 34.9991 17.5003 35Z" fill="url(#paint1_linear_375_83646)"/>
<path d="M14.375 31.8751C14.3755 32.2201 14.655 32.4996 15 32.5001H20C20.345 32.4996 20.6245 32.2201 20.625 31.8751V30.0001H14.375V31.8751Z" fill="url(#paint2_linear_375_83646)"/>
<path d="M17.5 5.62502C18.1904 5.62502 18.75 5.06536 18.75 4.375V1.25002C18.75 0.559658 18.1904 0 17.5 0C16.8097 0 16.25 0.559658 16.25 1.25002V4.375C16.25 5.06536 16.8097 5.62502 17.5 5.62502Z" fill="url(#paint3_linear_375_83646)"/>
<path d="M6.95071 8.71856C7.44536 9.19099 8.22397 9.19099 8.71862 8.71856C8.9531 8.48415 9.08482 8.16614 9.08482 7.8346C9.08482 7.50306 8.9531 7.18505 8.71862 6.95064L6.50877 4.7412C6.27443 4.50673 5.95649 4.375 5.62502 4.375C5.29355 4.375 4.97561 4.50673 4.7412 4.7412C4.50673 4.97554 4.375 5.29348 4.375 5.62502C4.375 5.95656 4.50673 6.27443 4.7412 6.50884L6.95071 8.71856Z" fill="url(#paint4_linear_375_83646)"/>
<path d="M5.62502 17.5C5.62502 16.8097 5.06536 16.25 4.375 16.25H1.25002C0.559932 16.2507 0.000683594 16.8099 0 17.5C0.000683594 18.1901 0.559932 18.7493 1.25002 18.75H4.375C5.06536 18.75 5.62502 18.1904 5.62502 17.5Z" fill="url(#paint5_linear_375_83646)"/>
<path d="M8.15904 25.9559C7.72701 25.8405 7.26626 25.9645 6.95065 26.2814L4.7412 28.4912C4.50673 28.7255 4.375 29.0435 4.375 29.375C4.375 29.7065 4.50673 30.0244 4.7412 30.2588C5.23571 30.7313 6.01426 30.7313 6.50877 30.2588L8.71856 28.0494C9.03534 27.7338 9.15948 27.273 9.04402 26.841C8.92856 26.409 8.59107 26.0714 8.15904 25.9559Z" fill="url(#paint6_linear_375_83646)"/>
<path d="M28.0498 26.2814C27.7342 25.9647 27.2734 25.8405 26.8414 25.956C26.4094 26.0714 26.0719 26.4089 25.9565 26.8409C25.841 27.2729 25.9651 27.7337 26.2819 28.0493L28.4917 30.2587C28.9862 30.7312 29.7648 30.7312 30.2593 30.2587C30.4938 30.0244 30.6255 29.7064 30.6255 29.3749C30.6255 29.0434 30.4938 28.7255 30.2593 28.4911L28.0498 26.2814Z" fill="url(#paint7_linear_375_83646)"/>
<path d="M33.75 16.25H30.625C29.9347 16.25 29.375 16.8097 29.375 17.5C29.375 18.1904 29.9347 18.75 30.625 18.75H33.75C34.4404 18.75 35 18.1904 35 17.5C35 16.8097 34.4404 16.25 33.75 16.25Z" fill="url(#paint8_linear_375_83646)"/>
<path d="M28.0502 8.71859L30.2596 6.5088C30.5754 6.19305 30.6987 5.73286 30.5831 5.30151C30.4675 4.87016 30.1307 4.53329 29.6993 4.41769C29.268 4.30209 28.8078 4.42542 28.492 4.74117L26.2822 6.95061C26.0477 7.18501 25.916 7.50302 25.916 7.83457C25.916 8.16611 26.0477 8.48412 26.2822 8.71852C26.7769 9.19102 27.5556 9.19102 28.0502 8.71859Z" fill="url(#paint9_linear_375_83646)"/>
<defs>
<linearGradient id="paint0_linear_375_83646" x1="15.8636" y1="22.5985" x2="22.4006" y2="13.639" gradientUnits="userSpaceOnUse">
<stop stop-color="#2A3A51"/>
<stop offset="0.1451" stop-color="#554551"/>
<stop offset="0.3684" stop-color="#915651"/>
<stop offset="0.5736" stop-color="#C06252"/>
<stop offset="0.7538" stop-color="#E36B52"/>
<stop offset="0.9021" stop-color="#F77152"/>
<stop offset="1" stop-color="#FF7352"/>
</linearGradient>
<linearGradient id="paint1_linear_375_83646" x1="17.1437" y1="34.6032" x2="17.3267" y2="33.757" gradientUnits="userSpaceOnUse">
<stop stop-color="#2A3A51"/>
<stop offset="0.1451" stop-color="#554551"/>
<stop offset="0.3684" stop-color="#915651"/>
<stop offset="0.5736" stop-color="#C06252"/>
<stop offset="0.7538" stop-color="#E36B52"/>
<stop offset="0.9021" stop-color="#F77152"/>
<stop offset="1" stop-color="#FF7352"/>
</linearGradient>
<linearGradient id="paint2_linear_375_83646" x1="16.8696" y1="31.7064" x2="17.2787" y2="30.0351" gradientUnits="userSpaceOnUse">
<stop stop-color="#2A3A51"/>
<stop offset="0.1451" stop-color="#554551"/>
<stop offset="0.3684" stop-color="#915651"/>
<stop offset="0.5736" stop-color="#C06252"/>
<stop offset="0.7538" stop-color="#E36B52"/>
<stop offset="0.9021" stop-color="#F77152"/>
<stop offset="1" stop-color="#FF7352"/>
</linearGradient>
<linearGradient id="paint3_linear_375_83646" x1="17.2478" y1="3.83919" x2="19.1429" y2="2.46291" gradientUnits="userSpaceOnUse">
<stop stop-color="#2A3A51"/>
<stop offset="0.1451" stop-color="#554551"/>
<stop offset="0.3684" stop-color="#915651"/>
<stop offset="0.5736" stop-color="#C06252"/>
<stop offset="0.7538" stop-color="#E36B52"/>
<stop offset="0.9021" stop-color="#F77152"/>
<stop offset="1" stop-color="#FF7352"/>
</linearGradient>
<linearGradient id="paint4_linear_375_83646" x1="6.25484" y1="7.5814" x2="7.73523" y2="5.15628" gradientUnits="userSpaceOnUse">
<stop stop-color="#2A3A51"/>
<stop offset="0.1451" stop-color="#554551"/>
<stop offset="0.3684" stop-color="#915651"/>
<stop offset="0.5736" stop-color="#C06252"/>
<stop offset="0.7538" stop-color="#E36B52"/>
<stop offset="0.9021" stop-color="#F77152"/>
<stop offset="1" stop-color="#FF7352"/>
</linearGradient>
<linearGradient id="paint5_linear_375_83646" x1="2.24512" y1="17.9563" x2="2.69376" y2="16.3069" gradientUnits="userSpaceOnUse">
<stop stop-color="#2A3A51"/>
<stop offset="0.1451" stop-color="#554551"/>
<stop offset="0.3684" stop-color="#915651"/>
<stop offset="0.5736" stop-color="#C06252"/>
<stop offset="0.7538" stop-color="#E36B52"/>
<stop offset="0.9021" stop-color="#F77152"/>
<stop offset="1" stop-color="#FF7352"/>
</linearGradient>
<linearGradient id="paint6_linear_375_83646" x1="6.25548" y1="29.1211" x2="7.73644" y2="26.6951" gradientUnits="userSpaceOnUse">
<stop stop-color="#2A3A51"/>
<stop offset="0.1451" stop-color="#554551"/>
<stop offset="0.3684" stop-color="#915651"/>
<stop offset="0.5736" stop-color="#C06252"/>
<stop offset="0.7538" stop-color="#E36B52"/>
<stop offset="0.9021" stop-color="#F77152"/>
<stop offset="1" stop-color="#FF7352"/>
</linearGradient>
<linearGradient id="paint7_linear_375_83646" x1="27.7945" y1="29.1211" x2="29.2754" y2="26.6951" gradientUnits="userSpaceOnUse">
<stop stop-color="#2A3A51"/>
<stop offset="0.1451" stop-color="#554551"/>
<stop offset="0.3684" stop-color="#915651"/>
<stop offset="0.5736" stop-color="#C06252"/>
<stop offset="0.7538" stop-color="#E36B52"/>
<stop offset="0.9021" stop-color="#F77152"/>
<stop offset="1" stop-color="#FF7352"/>
</linearGradient>
<linearGradient id="paint8_linear_375_83646" x1="31.6201" y1="17.9563" x2="32.0688" y2="16.3069" gradientUnits="userSpaceOnUse">
<stop stop-color="#2A3A51"/>
<stop offset="0.1451" stop-color="#554551"/>
<stop offset="0.3684" stop-color="#915651"/>
<stop offset="0.5736" stop-color="#C06252"/>
<stop offset="0.7538" stop-color="#E36B52"/>
<stop offset="0.9021" stop-color="#F77152"/>
<stop offset="1" stop-color="#FF7352"/>
</linearGradient>
<linearGradient id="paint9_linear_375_83646" x1="27.7958" y1="7.58143" x2="29.2762" y2="5.15635" gradientUnits="userSpaceOnUse">
<stop stop-color="#2A3A51"/>
<stop offset="0.1451" stop-color="#554551"/>
<stop offset="0.3684" stop-color="#915651"/>
<stop offset="0.5736" stop-color="#C06252"/>
<stop offset="0.7538" stop-color="#E36B52"/>
<stop offset="0.9021" stop-color="#F77152"/>
<stop offset="1" stop-color="#FF7352"/>
</linearGradient>
</defs>
</svg>
