<svg width="35" height="35" viewBox="0 0 35 35" fill="none" xmlns="http://www.w3.org/2000/svg">
<path d="M25.5683 16.5258C25.1123 12.805 22.1757 9.87582 18.4538 9.42923C18.1333 9.39266 17.8111 9.37434 17.4885 9.37427C14.1992 9.37933 11.2374 11.3672 9.98659 14.4094C8.73575 17.4516 9.44265 20.9479 11.7771 23.2652C13.0185 24.4541 13.7295 26.0924 13.7498 27.8111V28.7499H21.2497V27.8063C21.2554 26.1201 21.9414 24.5075 23.1523 23.3339C24.9811 21.5694 25.8757 19.0488 25.5683 16.5261V16.5258H25.5683Z" fill="#C3D0D5"/>
<path d="M17.5003 35C18.2946 34.9991 19.0025 34.4986 19.2682 33.75H15.7324C15.9981 34.4986 16.7059 34.9991 17.5003 35Z" fill="#C3D0D5"/>
<path d="M14.375 31.875C14.3755 32.22 14.655 32.4996 15 32.5H20C20.345 32.4996 20.6245 32.22 20.625 31.875V30H14.375V31.875Z" fill="#C3D0D5"/>
<path d="M17.5 5.62502C18.1904 5.62502 18.75 5.06536 18.75 4.375V1.25002C18.75 0.559658 18.1904 0 17.5 0C16.8097 0 16.25 0.559658 16.25 1.25002V4.375C16.25 5.06536 16.8097 5.62502 17.5 5.62502Z" fill="#C3D0D5"/>
<path d="M6.95071 8.71856C7.44536 9.19099 8.22397 9.19099 8.71862 8.71856C8.9531 8.48415 9.08482 8.16614 9.08482 7.8346C9.08482 7.50306 8.9531 7.18505 8.71862 6.95064L6.50877 4.7412C6.27443 4.50673 5.95649 4.375 5.62502 4.375C5.29355 4.375 4.97561 4.50673 4.7412 4.7412C4.50673 4.97554 4.375 5.29348 4.375 5.62502C4.375 5.95656 4.50673 6.27443 4.7412 6.50884L6.95071 8.71856Z" fill="#C3D0D5"/>
<path d="M5.62502 17.5C5.62502 16.8097 5.06536 16.25 4.375 16.25H1.25002C0.559932 16.2507 0.000683594 16.8099 0 17.5C0.000683594 18.1901 0.559932 18.7493 1.25002 18.75H4.375C5.06536 18.75 5.62502 18.1904 5.62502 17.5Z" fill="#C3D0D5"/>
<path d="M8.15904 25.956C7.72701 25.8405 7.26626 25.9646 6.95065 26.2815L4.7412 28.4912C4.50673 28.7256 4.375 29.0435 4.375 29.3751C4.375 29.7066 4.50673 30.0245 4.7412 30.2589C5.23571 30.7313 6.01426 30.7313 6.50877 30.2589L8.71856 28.0494C9.03534 27.7338 9.15948 27.2731 9.04402 26.841C8.92856 26.409 8.59107 26.0715 8.15904 25.956Z" fill="#C3D0D5"/>
<path d="M28.0498 26.2814C27.7342 25.9647 27.2734 25.8405 26.8414 25.956C26.4094 26.0714 26.0719 26.4089 25.9565 26.8409C25.841 27.2729 25.9651 27.7337 26.2819 28.0493L28.4917 30.2587C28.9862 30.7312 29.7648 30.7312 30.2593 30.2587C30.4938 30.0244 30.6255 29.7064 30.6255 29.3749C30.6255 29.0434 30.4938 28.7255 30.2593 28.4911L28.0498 26.2814Z" fill="#C3D0D5"/>
<path d="M33.75 16.25H30.625C29.9347 16.25 29.375 16.8097 29.375 17.5C29.375 18.1904 29.9347 18.75 30.625 18.75H33.75C34.4404 18.75 35 18.1904 35 17.5C35 16.8097 34.4404 16.25 33.75 16.25Z" fill="#C3D0D5"/>
<path d="M28.0492 8.71853L30.2587 6.50874C30.5744 6.19299 30.6977 5.7328 30.5821 5.30145C30.4665 4.8701 30.1297 4.53323 29.6983 4.41763C29.267 4.30203 28.8068 4.42535 28.491 4.74111L26.2812 6.95055C26.0468 7.18495 25.915 7.50296 25.915 7.8345C25.915 8.16605 26.0468 8.48406 26.2812 8.71846C26.776 9.19096 27.5546 9.19096 28.0492 8.71853Z" fill="#C3D0D5"/>
</svg>
