<svg width="35" height="35" viewBox="0 0 35 35" fill="none" xmlns="http://www.w3.org/2000/svg">
<g clip-path="url(#clip0_66_1782)">
<path d="M26.8408 1.98216L24.4731 3.95177L22.1056 1.98216H17.0243V-0.0683594H31.9237V1.98216H26.8408Z" fill="#C3D0D5"/>
<path d="M22.4271 11.3953C22.481 14.4656 21.2503 17.9102 19.0564 20.7533C17.7156 22.4909 16.0354 23.8524 14.0621 24.8009C12.4698 25.5662 10.6804 26.0685 8.74341 26.2939C5.99782 26.6135 3.75584 26.284 3.04688 26.1569L18.6133 8.41948C19.4748 9.82272 20.826 10.8946 22.4271 11.3953Z" fill="#C3D0D5"/>
<path d="M20.6799 22.0062C23.0695 18.9095 24.4437 15.1427 24.4779 11.7061C25.5409 11.7055 26.5481 11.4623 27.4472 11.0286C27.7986 12.3336 27.9661 13.6773 27.9348 14.9961C27.8785 17.3535 27.2138 19.5984 25.9591 21.6687C25.9372 21.7047 25.9147 21.7402 25.8926 21.776C24.4391 23.8928 22.2447 25.7019 19.3448 27.1185C16.0525 28.7268 15.7695 30.922 15.7695 30.922V34.9318H13.719V30.8823H12.2468V29.8569C12.2468 29.2317 11.873 28.6542 11.2944 28.3853C11.0842 28.2875 10.877 28.1786 10.6764 28.0614C14.8167 27.225 18.2515 25.1529 20.6799 22.0062Z" fill="#C3D0D5"/>
<path d="M20.2533 28.9569C20.5657 28.8026 20.8712 28.644 21.1694 28.4814C21.1179 28.7182 21.081 28.9585 21.0594 29.2015L20.9107 30.8822H20.1424V34.9317H18.0919V30.8822H18.0783C18.6044 30.0702 19.3547 29.401 20.2533 28.9569Z" fill="#C3D0D5"/>
<path d="M24.4731 9.6555C21.8153 9.6555 19.6532 7.49336 19.6532 4.83561V2.60965L24.4731 6.61937L29.293 2.60965V4.83561C29.293 7.49336 27.1308 9.6555 24.4731 9.6555Z" fill="#C3D0D5"/>
</g>
<defs>
<clipPath id="clip0_66_1782">
<rect width="35" height="35" fill="white" transform="matrix(-1 0 0 1 35 0)"/>
</clipPath>
</defs>
</svg>
