<svg width="29" height="29" viewBox="0 0 29 29" fill="none" xmlns="http://www.w3.org/2000/svg">
<path d="M27.885 0.00377798C22.0287 -0.101222 15.35 2.96003 11.1225 7.70878C7.08245 7.78503 3.1487 9.44128 0.252451 12.3375C0.0837009 12.5038 0.0237009 12.7525 0.0974509 12.9775C0.172451 13.2038 0.367451 13.3675 0.602451 13.4013L5.41995 14.0913L4.82495 14.7575C4.6037 15.005 4.61495 15.3813 4.84995 15.6163L12.8837 23.65C13.005 23.7713 13.165 23.8325 13.3262 23.8325C13.475 23.8325 13.6237 23.78 13.7425 23.6738L14.4087 23.0788L15.0987 27.8963C15.1325 28.1313 15.3175 28.3038 15.5412 28.3788C15.5987 28.3975 15.6587 28.4063 15.72 28.4063C15.8975 28.4063 16.0787 28.3288 16.2037 28.205C19.06 25.3488 20.7162 21.415 20.7925 17.375C25.5462 13.1388 28.6325 6.46253 28.4962 0.613778C28.4875 0.281278 28.2187 0.012528 27.885 0.00377798ZM22.125 10.7938C21.5162 11.4025 20.7162 11.7075 19.915 11.7075C19.1137 11.7075 18.3137 11.4025 17.705 10.7938C16.4875 9.57503 16.4875 7.59253 17.705 6.37378C18.9237 5.15503 20.9062 5.15503 22.125 6.37378C23.3437 7.59253 23.3437 9.57628 22.125 10.7938Z" fill="url(#paint0_linear_375_83549)"/>
<defs>
<linearGradient id="paint0_linear_375_83549" x1="11.4154" y1="19.3882" x2="20.3725" y2="4.73714" gradientUnits="userSpaceOnUse">
<stop stop-color="#2A3A51"/>
<stop offset="0.1451" stop-color="#554551"/>
<stop offset="0.3684" stop-color="#915651"/>
<stop offset="0.5736" stop-color="#C06252"/>
<stop offset="0.7538" stop-color="#E36B52"/>
<stop offset="0.9021" stop-color="#F77152"/>
<stop offset="1" stop-color="#FF7352"/>
</linearGradient>
</defs>
</svg>
