<svg width="30" height="30" viewBox="0 0 30 30" fill="none" xmlns="http://www.w3.org/2000/svg">
<g clip-path="url(#clip0_66_1672)">
<path d="M29.385 0.00383901C23.5287 -0.101161 16.85 2.96009 12.6225 7.70884C8.58245 7.78509 4.6487 9.44134 1.75245 12.3376C1.5837 12.5038 1.5237 12.7526 1.59745 12.9776C1.67245 13.2038 1.86745 13.3676 2.10245 13.4013L6.91995 14.0913L6.32495 14.7576C6.1037 15.0051 6.11495 15.3813 6.34995 15.6163L14.3837 23.6501C14.505 23.7713 14.665 23.8326 14.8262 23.8326C14.975 23.8326 15.1237 23.7801 15.2425 23.6738L15.9087 23.0788L16.5987 27.8963C16.6325 28.1313 16.8175 28.3038 17.0412 28.3788C17.0987 28.3976 17.1587 28.4063 17.22 28.4063C17.3975 28.4063 17.5787 28.3288 17.7037 28.2051C20.56 25.3488 22.2162 21.4151 22.2925 17.3751C27.0462 13.1388 30.1325 6.46259 29.9962 0.613839C29.9875 0.281339 29.7187 0.012589 29.385 0.00383901ZM23.625 10.7938C23.0162 11.4026 22.2162 11.7076 21.415 11.7076C20.6137 11.7076 19.8137 11.4026 19.205 10.7938C17.9875 9.57509 17.9875 7.59259 19.205 6.37384C20.4237 5.15509 22.4062 5.15509 23.625 6.37384C24.8437 7.59259 24.8437 9.57634 23.625 10.7938Z" fill="#C3D0D5"/>
<path d="M3.40507 21.1312C2.06757 22.4687 0.231322 28.5112 0.0263217 29.1949C-0.0399283 29.415 0.0213218 29.6537 0.182572 29.8162C0.302572 29.9362 0.461322 30 0.625072 30C0.685072 30 0.745072 29.9912 0.805072 29.9737C1.48882 29.7687 7.53132 27.9324 8.86882 26.5949C10.3751 25.0887 10.3751 22.6374 8.86882 21.1312C7.36132 19.6249 4.91132 19.6262 3.40507 21.1312Z" fill="#C3D0D5"/>
</g>
<defs>
<clipPath id="clip0_66_1672">
<rect width="30" height="30" fill="white"/>
</clipPath>
</defs>
</svg>
