<svg width="48" height="55" viewBox="0 0 48 55" fill="none" xmlns="http://www.w3.org/2000/svg">
<path d="M47.1314 51.0211L42.9034 33.7374V8.8305C42.9015 8.1201 42.6473 7.4394 42.1963 6.93706C41.7454 6.43473 41.1343 6.15158 40.4966 6.14946H33.4445L30.46 2.81604C30.3186 2.66029 30.1304 2.56858 29.9317 2.55867C29.7331 2.54876 29.5382 2.62137 29.3849 2.76242L27.1386 4.80001L26.8578 1.5917C26.8352 1.37164 26.7412 1.16837 26.5934 1.02021C26.4456 0.872044 26.2543 0.789232 26.0555 0.787384H21.2418C21.043 0.789232 20.8516 0.872044 20.7038 1.02021C20.556 1.16837 20.462 1.37164 20.4395 1.5917L20.1587 4.80001L17.9123 2.76242C17.759 2.62137 17.5642 2.54876 17.3655 2.55867C17.1669 2.56858 16.9786 2.66029 16.8373 2.81604L13.8528 6.14946H6.80071C6.16296 6.15158 5.55188 6.43473 5.10092 6.93706C4.64996 7.4394 4.39577 8.1201 4.39387 8.8305V33.7374L0.16584 51.0211C0.066563 51.4187 0.0513238 51.8365 0.121318 52.2417C0.191312 52.6469 0.344635 53.0286 0.569262 53.3567C0.793888 53.6848 1.08371 53.9505 1.41599 54.133C1.74828 54.3154 2.11399 54.4096 2.48443 54.4082H44.8128C45.1833 54.4096 45.549 54.3154 45.8813 54.133C46.2136 53.9505 46.5034 53.6848 46.728 53.3567C46.9526 53.0286 47.1059 52.6469 47.1759 52.2417C47.2459 51.8365 47.2307 51.4187 47.1314 51.0211ZM17.463 4.65702L20.2951 7.23975C20.4085 7.34113 20.5441 7.407 20.6879 7.43056C20.8318 7.45413 20.9786 7.43453 21.1134 7.3738C21.2474 7.31069 21.3636 7.20846 21.4497 7.0779C21.5358 6.94735 21.5887 6.79331 21.6028 6.63205L21.9638 2.57474H25.3334L25.6945 6.63205C25.7085 6.79331 25.7614 6.94735 25.8476 7.0779C25.9337 7.20846 26.0499 7.31069 26.1838 7.3738C26.3186 7.43453 26.4655 7.45413 26.6093 7.43056C26.7532 7.407 26.8888 7.34113 27.0022 7.23975L29.8342 4.65702L32.209 7.30231L29.8904 10.457C29.7994 10.5833 29.7402 10.7343 29.7191 10.8946C29.6979 11.0548 29.7155 11.2184 29.77 11.3686C29.8267 11.5178 29.9185 11.6472 30.0357 11.7431C30.1529 11.8391 30.2912 11.898 30.4359 11.9137L34.0783 12.3159V16.0693L30.4359 16.4715C30.2912 16.4871 30.1529 16.5461 30.0357 16.642C29.9185 16.738 29.8267 16.8674 29.77 17.0166C29.7155 17.1667 29.6979 17.3304 29.7191 17.4906C29.7402 17.6508 29.7994 17.8019 29.8904 17.9282L32.209 21.0829L29.8342 23.7281L27.0022 21.1454C26.8888 21.044 26.7532 20.9782 26.6093 20.9546C26.4655 20.931 26.3186 20.9506 26.1838 21.0114C26.0499 21.0745 25.9337 21.1767 25.8476 21.3073C25.7614 21.4378 25.7085 21.5919 25.6945 21.7531L25.3334 25.8104H21.9638L21.6028 21.7531C21.5887 21.5919 21.5358 21.4378 21.4497 21.3073C21.3636 21.1767 21.2474 21.0745 21.1134 21.0114C20.9786 20.9506 20.8318 20.931 20.6879 20.9546C20.5441 20.9782 20.4085 21.044 20.2951 21.1454L17.463 23.7281L15.0883 21.0829L17.4069 17.9282C17.4979 17.8019 17.557 17.6508 17.5782 17.4906C17.5993 17.3304 17.5817 17.1667 17.5272 17.0166C17.4706 16.8674 17.3788 16.738 17.2616 16.642C17.1444 16.5461 17.0061 16.4871 16.8613 16.4715L13.219 16.0693V12.3159L16.8613 11.9137C17.0061 11.898 17.1444 11.8391 17.2616 11.7431C17.3788 11.6472 17.4706 11.5178 17.5272 11.3686C17.5817 11.2184 17.5993 11.0548 17.5782 10.8946C17.557 10.7343 17.4979 10.5833 17.4069 10.457L15.0883 7.30231L17.463 4.65702ZM5.99843 8.8305C5.99843 8.59348 6.08296 8.36617 6.23341 8.19858C6.38387 8.03098 6.58793 7.93682 6.80071 7.93682H13.4757L15.2166 10.3051L12.3365 10.6179C12.1389 10.6429 11.9564 10.7477 11.8234 10.9123C11.6904 11.0769 11.6161 11.2901 11.6144 11.5115V16.8736C11.6161 17.0951 11.6904 17.3082 11.8234 17.4729C11.9564 17.6375 12.1389 17.7422 12.3365 17.7673L15.2166 18.0801L13.3874 20.5824C13.2608 20.7532 13.1956 20.9702 13.2045 21.1915C13.2134 21.4127 13.2958 21.6224 13.4356 21.7799L16.8373 25.5691C16.9786 25.7249 17.1669 25.8166 17.3655 25.8265C17.5642 25.8364 17.759 25.7638 17.9123 25.6227L20.1587 23.5852L20.4395 26.7935C20.462 27.0135 20.556 27.2168 20.7038 27.365C20.8516 27.5131 21.043 27.5959 21.2418 27.5978H26.0555C26.2543 27.5959 26.4456 27.5131 26.5934 27.365C26.7412 27.2168 26.8352 27.0135 26.8578 26.7935L27.1386 23.5852L29.3849 25.6227C29.5382 25.7638 29.7331 25.8364 29.9317 25.8265C30.1304 25.8166 30.3186 25.7249 30.46 25.5691L33.8617 21.7799C34.0015 21.6224 34.0838 21.4127 34.0927 21.1915C34.1016 20.9702 34.0364 20.7532 33.9098 20.5824L32.0806 18.0801L34.9608 17.7673C35.1584 17.7422 35.3408 17.6375 35.4738 17.4729C35.6069 17.3082 35.6812 17.0951 35.6829 16.8736V11.5115C35.6812 11.2901 35.6069 11.0769 35.4738 10.9123C35.3408 10.7477 35.1584 10.6429 34.9608 10.6179L32.0806 10.3051L33.8216 7.93682H40.4966C40.7093 7.93682 40.9134 8.03098 41.0639 8.19858C41.2143 8.36617 41.2988 8.59348 41.2988 8.8305V32.9599H5.99843V8.8305ZM45.4547 52.2723C45.3795 52.3821 45.2823 52.4709 45.1709 52.5314C45.0594 52.5919 44.9368 52.6226 44.8128 52.6208H2.48443C2.36045 52.6226 2.23783 52.5919 2.12638 52.5314C2.01493 52.4709 1.91774 52.3821 1.84261 52.2723C1.76762 52.1614 1.71635 52.0329 1.69272 51.8966C1.66908 51.7603 1.6737 51.6198 1.70622 51.4858L5.80588 34.7472H41.4914L45.591 51.4858C45.6236 51.6198 45.6282 51.7603 45.6045 51.8966C45.5809 52.0329 45.5296 52.1614 45.4547 52.2723Z" fill="#C3D0D5"/>
<path d="M30.8443 46.1478C30.8008 45.9546 30.7006 45.783 30.5596 45.6605C30.4186 45.5379 30.2449 45.4713 30.0661 45.4713H17.2295C17.0507 45.4713 16.877 45.5379 16.736 45.6605C16.595 45.783 16.4948 45.9546 16.4513 46.1478L15.649 49.7225C15.6194 49.8543 15.6171 49.9919 15.6424 50.1248C15.6676 50.2577 15.7198 50.3824 15.7948 50.4895C15.8698 50.5966 15.9658 50.6832 16.0754 50.7428C16.185 50.8024 16.3053 50.8334 16.4273 50.8334H30.8683C30.9903 50.8334 31.1106 50.8024 31.2202 50.7428C31.3298 50.6832 31.4258 50.5966 31.5008 50.4895C31.5758 50.3824 31.628 50.2577 31.6532 50.1248C31.6785 49.9919 31.6762 49.8543 31.6466 49.7225L30.8443 46.1478ZM17.455 49.046L17.8561 47.2587H29.4395L29.8406 49.046H17.455Z" fill="#C3D0D5"/>
<path d="M19.6367 29.3851H27.6595V31.1725H19.6367V29.3851Z" fill="#C3D0D5"/>
<path d="M7.60156 36.5346H10.8107V38.322H7.60156V36.5346Z" fill="#C3D0D5"/>
<path d="M12.416 36.5346H15.6251V38.322H12.416V36.5346Z" fill="#C3D0D5"/>
<path d="M17.2305 36.5346H20.4396V38.322H17.2305V36.5346Z" fill="#C3D0D5"/>
<path d="M26.8555 36.5346H30.0646V38.322H26.8555V36.5346Z" fill="#C3D0D5"/>
<path d="M31.6719 36.5346H34.881V38.322H31.6719V36.5346Z" fill="#C3D0D5"/>
<path d="M36.4844 36.5346H39.6935V38.322H36.4844V36.5346Z" fill="#C3D0D5"/>
<path d="M22.043 36.5346H25.2521V38.322H22.043V36.5346Z" fill="#C3D0D5"/>
<path d="M7.60156 40.1094H10.8107V41.8967H7.60156V40.1094Z" fill="#C3D0D5"/>
<path d="M12.416 40.1094H15.6251V41.8967H12.416V40.1094Z" fill="#C3D0D5"/>
<path d="M17.2305 40.1094H20.4396V41.8967H17.2305V40.1094Z" fill="#C3D0D5"/>
<path d="M26.8555 40.1094H30.0646V41.8967H26.8555V40.1094Z" fill="#C3D0D5"/>
<path d="M31.6719 40.1094H34.881V41.8967H31.6719V40.1094Z" fill="#C3D0D5"/>
<path d="M36.4844 40.1094H39.6935V41.8967H36.4844V40.1094Z" fill="#C3D0D5"/>
<path d="M22.043 40.1094H25.2521V41.8967H22.043V40.1094Z" fill="#C3D0D5"/>
<path d="M23.6477 19.5547C24.5997 19.5547 25.5304 19.2402 26.322 18.651C27.1136 18.0618 27.7306 17.2244 28.0949 16.2446C28.4593 15.2648 28.5546 14.1866 28.3689 13.1465C28.1831 12.1064 27.7247 11.1509 27.0515 10.401C26.3783 9.65112 25.5205 9.14044 24.5868 8.93354C23.653 8.72664 22.6851 8.83283 21.8056 9.23867C20.926 9.64451 20.1742 10.3318 19.6452 11.2136C19.1163 12.0954 18.834 13.1321 18.834 14.1926C18.8353 15.6143 19.3428 16.9773 20.2453 17.9826C21.1478 18.9879 22.3714 19.5532 23.6477 19.5547ZM23.6477 10.6179C24.2824 10.6179 24.9028 10.8275 25.4306 11.2203C25.9583 11.6131 26.3696 12.1714 26.6125 12.8246C26.8554 13.4778 26.919 14.1966 26.7951 14.89C26.6713 15.5834 26.3657 16.2204 25.9169 16.7203C25.4681 17.2202 24.8963 17.5607 24.2737 17.6986C23.6512 17.8365 23.006 17.7658 22.4196 17.4952C21.8332 17.2246 21.332 16.7665 20.9794 16.1786C20.6268 15.5907 20.4385 14.8996 20.4385 14.1926C20.4385 13.2445 20.7767 12.3353 21.3785 11.6649C21.9803 10.9945 22.7966 10.6179 23.6477 10.6179Z" fill="#C3D0D5"/>
</svg>
