<svg width="95" height="20" viewBox="0 0 95 20" fill="black" xmlns="http://www.w3.org/2000/svg">
<path d="M3.689 16.4726V13.8835H3.06696C3.06696 13.8835 3.06696 16.0123 3.06696 17.0767C4.11312 17.0767 6.17716 17.0767 6.17716 17.0767V16.4726H3.689Z" />
<path d="M3.689 3.52737H6.17716V2.92326C6.17716 2.92326 4.11312 2.92326 3.06696 2.92326C3.06696 3.98765 3.06696 6.11641 3.06696 6.11641H3.689V3.52737Z" />
<path d="M16.4408 3.52737V6.11641H17.0629C17.0629 6.11641 17.0629 3.98765 17.0629 2.92326C16.0167 2.92326 13.9244 2.92326 13.9244 2.92326L13.9527 3.52737H16.4408Z" />
<path d="M16.4408 16.4726H13.9527L13.9244 17.0767C13.9244 17.0767 16.0167 17.0767 17.0629 17.0767C17.0629 16.0123 17.0629 13.8835 17.0629 13.8835H16.4408V16.4726Z" />
<path d="M18.307 8.73422H16.6953C16.6105 8.27395 16.4974 7.84244 16.3277 7.4397H18.307V6.80682H16.0733C15.4512 5.54107 14.4333 4.50545 13.2175 3.84381V1.59998H12.5955V3.52737C12.1996 3.35477 11.7473 3.2397 11.3231 3.1534V1.59998H10.7011V3.03833C10.4749 3.00956 10.277 3.00956 10.0508 3.00956C9.82458 3.00956 9.59839 3.00956 9.40046 3.03833V1.59998H8.77842V3.1534C8.32603 3.2397 7.90191 3.38354 7.50607 3.52737V1.59998H6.88403V3.81504C5.66822 4.47669 4.65033 5.5123 4.02829 6.77806H1.59668V7.41093H3.77382C3.60418 7.81367 3.49108 8.24518 3.40625 8.70545H1.59668V9.33833H3.32143C3.26488 9.33833 3.29315 10.6616 3.32143 10.6616H1.59668V11.2945H3.40625C3.49108 11.7548 3.60418 12.1863 3.77382 12.589H1.59668V13.2219H4.02829C4.65033 14.4876 5.66822 15.5233 6.88403 16.1849V18.4H7.50607V16.4726C7.90191 16.6452 8.3543 16.7602 8.77842 16.8465V18.4H9.40046V16.9329C9.62666 16.9616 9.82458 16.9616 10.0508 16.9616C10.277 16.9616 10.5032 16.9616 10.7011 16.9329V18.4H11.3231V16.8465C11.7755 16.7602 12.1996 16.6164 12.5955 16.4726V18.4H13.2175V16.1849C14.4333 15.5233 15.4512 14.4876 16.0733 13.2219H18.307V12.589H16.356C16.5257 12.1863 16.6388 11.726 16.7236 11.2945H18.3352V10.6616H16.8084C16.865 10.6616 16.8084 9.33833 16.8084 9.33833H18.3352L18.307 8.73422ZM13.0479 8.53285C13.0479 8.82052 13.0479 9.13696 13.0479 9.4534C11.9169 8.76299 10.9273 8.15888 9.93768 7.526C9.00462 6.95066 8.07156 6.31778 7.1385 5.74244C6.57301 5.39724 6.29026 5.54107 6.29026 6.23148C6.26199 7.3534 6.29026 8.50408 6.29026 9.68354C5.55512 9.68354 4.87653 9.68354 4.22622 9.68354C4.22622 8.61915 4.50896 7.55477 5.0179 6.60545C6.09234 4.90819 7.95846 3.75751 10.0791 3.75751C13.2741 3.75751 15.9036 6.31778 16.0733 9.51093C15.3664 9.51093 14.6313 9.51093 13.8678 9.51093C13.8678 8.15888 13.8678 6.80682 13.8678 5.426C13.5851 5.39724 13.3589 5.45477 13.0762 5.426C13.0479 6.51915 13.0479 7.46847 13.0479 8.53285ZM12.2845 10.0287C10.5597 11.0931 8.86325 12.1575 7.11022 13.2507C7.11022 11.0931 7.11022 8.93559 7.11022 6.77806C8.86325 7.87121 10.5597 8.93559 12.2845 10.0287ZM10.0508 16.2424C7.93019 16.2424 6.03579 15.1205 4.98963 13.3945C4.48069 12.4452 4.19794 11.352 4.19794 10.3164C4.87653 10.3164 5.52685 10.3164 6.26199 10.3164C6.26199 11.4959 6.26199 12.6465 6.26199 13.7685C6.26199 14.4589 6.54473 14.6027 7.11022 14.2575C8.04328 13.6822 8.97635 13.0493 9.90941 12.4739C10.899 11.8411 11.8886 11.237 13.0196 10.5466C13.0196 12.0137 13.0196 13.2219 13.0196 14.5452C13.3024 14.5164 13.5286 14.5739 13.8113 14.5452C13.8113 13.1644 13.8113 11.8411 13.8113 10.4602C14.603 10.4602 15.3099 10.4602 16.0167 10.4602C15.8753 13.6822 13.2458 16.2424 10.0508 16.2424Z" />
<path d="M32.3218 5.01697H33.5984C33.9105 5.01697 34.0807 5.15934 34.0807 5.41561L34.563 14.5844H33.5133L33.031 5.78578H32.6622L29.7401 13.3031C29.6549 13.5024 29.5131 13.6163 29.2578 13.6163H28.1797C27.9243 13.6163 27.7541 13.5024 27.6974 13.3031L24.7469 5.78578H24.4064L23.9809 14.5844H22.9312L23.3851 5.41561C23.3851 5.15934 23.5553 5.01697 23.8674 5.01697H25.144C25.371 5.01697 25.5412 5.13087 25.6263 5.33019L28.0946 11.5661C28.2648 12.0217 28.435 12.4773 28.5485 12.876H28.9173C28.9741 12.6766 29.1443 12.221 29.3996 11.5661L31.8678 5.33019C31.8962 5.13087 32.0664 5.01697 32.3218 5.01697Z" />
<path d="M44.9467 11.4237H40.0386L38.7903 14.5844H37.6838L41.4571 5.27324C41.5138 5.10239 41.6557 5.01697 41.8827 5.01697H43.1026C43.3295 5.01697 43.4714 5.10239 43.5281 5.27324L47.3014 14.5844H46.195L44.9467 11.4237ZM44.6346 10.6549L43.0175 6.52612C43.0175 6.46917 42.9607 6.35527 42.8756 6.18443C42.7905 5.9851 42.7338 5.84273 42.7054 5.75731H42.2515L41.9394 6.52612L40.3223 10.6549H44.6346Z" />
<path d="M54.7344 11.196V14.6129H53.6847V11.196L49.8831 5.04547H51.0179L53.5996 9.28818C53.7414 9.51598 53.9117 9.85768 54.1386 10.3133H54.2521C54.394 10.0285 54.5642 9.68683 54.7911 9.28818L57.3728 5.01699H58.5077L54.7344 11.196Z" />
<path d="M64.891 9.97154H63.3307C63.3874 10.3417 63.4158 10.7119 63.4158 11.0536V14.5844H62.3661V5.01697H63.4158V8.1207C63.4158 8.49087 63.3874 8.86104 63.3307 9.23121H64.891L68.4941 5.01697H69.6856L66.2244 9.08883C66.111 9.25968 65.9407 9.40205 65.7138 9.60138V9.62985C65.9407 9.8007 66.1393 10 66.2812 10.1709L69.941 14.5844H68.721L64.891 9.97154Z" />
<path d="M74.1114 6.099C74.7639 5.38714 75.8704 5.01697 77.4875 5.01697C79.1046 5.01697 80.211 5.38714 80.8636 6.099C81.5161 6.83934 81.8282 8.1207 81.8282 9.97154C81.8282 11.8224 81.5161 13.1038 80.8636 13.8441C80.211 14.5844 79.1046 14.9261 77.4875 14.9261C75.8704 14.9261 74.7639 14.556 74.1114 13.8441C73.4589 13.1322 73.1468 11.8224 73.1468 9.97154C73.1468 8.09222 73.4589 6.81087 74.1114 6.099ZM79.9841 6.72544C79.5018 6.12748 78.679 5.81425 77.4591 5.81425C76.2392 5.81425 75.4164 6.12748 74.9341 6.72544C74.4518 7.32341 74.2249 8.40544 74.2249 9.97154C74.2249 11.5376 74.4518 12.5912 74.9341 13.2176C75.4164 13.8156 76.2392 14.1288 77.4591 14.1288C78.679 14.1288 79.5018 13.8156 79.9841 13.2176C80.4664 12.6197 80.6933 11.5376 80.6933 9.97154C80.6933 8.40544 80.4664 7.32341 79.9841 6.72544Z" />
<path d="M93.4033 5.01697V14.2143C93.4033 14.4705 93.2614 14.6129 92.9493 14.6129H91.8145C91.5876 14.6129 91.389 14.499 91.3039 14.2997L87.0199 7.03866C86.6227 6.3268 86.3958 5.95663 86.3958 5.89968H86.0837C86.1121 6.15595 86.1121 6.52612 86.1121 7.03866V14.6129H85.0624V5.41561C85.0624 5.15934 85.2042 5.01697 85.5163 5.01697H86.6227C86.8497 5.01697 87.0483 5.13087 87.1334 5.33019L91.3322 12.4204C91.6727 12.9899 91.928 13.417 92.0699 13.7017H92.4103C92.3819 13.2461 92.3536 12.7905 92.3536 12.3349V5.01697H93.4033Z" />
</svg>
