<svg width="39" height="40" viewBox="0 0 39 40" fill="none" xmlns="http://www.w3.org/2000/svg">
<path d="M37.8356 24.1222C37.3032 23.6126 36.6088 23.332 35.8804 23.332C35.1038 23.332 34.3772 23.6444 33.8343 24.2118L30.1702 28.0398H24.7899C25.1678 27.5248 25.3635 26.8988 25.346 26.242C25.3046 24.7057 24.0289 23.456 22.5023 23.456H16.2688C15.7307 23.456 15.2079 23.5701 14.7146 23.7953L10.1687 25.8727H8.10631V25.3642C8.10631 25.047 7.85532 24.7899 7.54574 24.7899H5.21827C4.90869 24.7899 4.65771 25.047 4.65771 25.3642C4.65771 25.6815 4.90869 25.9385 5.21827 25.9385H6.98518V38.2925H1.59777V25.9386H2.6023C2.91188 25.9386 3.16287 25.6815 3.16287 25.3643C3.16287 25.047 2.91188 24.79 2.6023 24.79H1.03713C0.727546 24.79 0.476562 25.047 0.476562 25.3643V38.8668C0.476562 39.184 0.727546 39.4411 1.03713 39.4411H7.54567C7.85525 39.4411 8.10623 39.184 8.10623 38.8668V38.6907H14.1133C14.8172 38.6907 15.5203 38.6028 16.2032 38.4295L25.4914 36.0733C25.7919 35.9971 25.9752 35.6857 25.9008 35.3778C25.8265 35.0699 25.5225 34.8821 25.2219 34.9583L15.9337 37.3145C15.3389 37.4655 14.7264 37.542 14.1133 37.542H8.10631V27.0214H10.288C10.3667 27.0214 10.4445 27.0044 10.5164 26.9716L15.171 24.8445C15.5197 24.6855 15.889 24.6047 16.2688 24.6047H22.5023C23.4275 24.6047 24.2005 25.3535 24.2253 26.2736C24.2377 26.7424 24.0693 27.1851 23.751 27.5202C23.4326 27.8554 22.5455 28.0402 22.5436 28.0402H18.2812C17.9716 28.0402 17.7206 28.2973 17.7206 28.6145C17.7206 28.9318 17.9716 29.1888 18.2812 29.1888L30.4055 29.1885C30.5561 29.1885 30.7002 29.1264 30.8057 29.0163L34.6347 25.016C34.9651 24.6707 35.4074 24.4807 35.8803 24.4807C36.3236 24.4807 36.7462 24.6515 37.07 24.9614C37.772 25.6338 37.8098 26.7662 37.1544 27.4857L33.4279 31.5763C32.4248 32.6811 31.1377 33.4571 29.7057 33.8206L27.7609 34.3137C27.4604 34.3899 27.277 34.7013 27.3514 35.0092C27.4146 35.2707 27.6434 35.4456 27.8951 35.4456C27.9397 35.4456 27.985 35.4401 28.0302 35.4286L29.9751 34.9355C31.6191 34.5183 33.0969 33.6272 34.248 32.3593L37.974 28.2694C39.051 27.0872 38.9889 25.2268 37.8356 24.1222Z" fill="#C3D0D5"/>
<path d="M23.3857 22.1137C29.2733 22.1137 34.0633 17.2062 34.0633 11.1742C34.0633 8.64985 33.2006 6.18558 31.6343 4.23529C31.4376 3.99055 31.0843 3.95518 30.8452 4.1568C30.6062 4.35835 30.5718 4.72024 30.7685 4.9652C32.1702 6.71043 32.9422 8.91556 32.9422 11.1743C32.9422 16.573 28.6551 20.9651 23.3857 20.9651C18.1162 20.9651 13.8291 16.573 13.8291 11.1743C13.8292 5.77537 18.1162 1.38325 23.3857 1.38325C25.4047 1.38325 27.3363 2.02342 28.9716 3.23468C29.2225 3.42045 29.5729 3.36279 29.7543 3.10565C29.9357 2.84867 29.8793 2.4896 29.6284 2.30376C27.8008 0.950138 25.6421 0.234619 23.3857 0.234619C17.498 0.234619 12.708 5.14209 12.708 11.1741C12.7081 17.2062 17.498 22.1137 23.3857 22.1137Z" fill="#C3D0D5"/>
<path d="M27.69 4.40276L25.8233 5.57972C25.7236 5.53401 25.623 5.4912 25.5217 5.45131L25.0141 3.26723C24.954 3.00856 24.7284 2.82593 24.4688 2.82593H22.3008C22.0412 2.82593 21.8156 3.00856 21.7555 3.26723L21.2479 5.45131C21.1466 5.4912 21.046 5.53401 20.9463 5.57972L19.0796 4.40276C18.8586 4.2634 18.573 4.29778 18.3894 4.48577L16.8564 6.0564C16.6729 6.24447 16.6394 6.53699 16.7754 6.7635L17.9241 8.67596C17.8795 8.77804 17.8377 8.88111 17.7989 8.98502L15.6671 9.50504C15.4146 9.56669 15.2363 9.79779 15.2363 10.0637V12.2849C15.2363 12.5508 15.4145 12.782 15.6671 12.8436L17.7989 13.3636C17.8377 13.4674 17.8796 13.5705 17.9241 13.6726L16.7754 15.5851C16.6394 15.8116 16.6729 16.1041 16.8564 16.2922L18.3894 17.8628C18.573 18.0508 18.8586 18.085 19.0796 17.9458L20.9463 16.7688C21.0458 16.8145 21.1464 16.8573 21.2478 16.8972L21.7554 19.0813C21.8155 19.34 22.0412 19.5226 22.3007 19.5226H24.4687C24.7283 19.5226 24.9539 19.34 25.014 19.0813L25.5216 16.8972C25.623 16.8573 25.7237 16.8145 25.8232 16.7688L27.6899 17.9458C27.911 18.0852 28.1965 18.0508 28.38 17.8628L29.9131 16.2922C30.0966 16.1041 30.1301 15.8116 29.9941 15.5851L28.8453 13.6726C28.8899 13.5705 28.9317 13.4674 28.9706 13.3636L31.1024 12.8436C31.3549 12.782 31.5331 12.5508 31.5331 12.2849V10.0637C31.5331 9.79779 31.3549 9.56669 31.1024 9.50504L28.9706 8.98502C28.9316 8.88111 28.8898 8.77804 28.8453 8.67596L29.994 6.7635C30.13 6.53699 30.0966 6.24447 29.913 6.0564L28.38 4.48577C28.1966 4.29778 27.911 4.26347 27.69 4.40276ZM27.7091 8.90408C27.8296 9.14445 27.931 9.39439 28.0104 9.64724C28.0705 9.8383 28.2236 9.98341 28.4142 10.0299L30.4122 10.5173V11.8312L28.4142 12.3185C28.2235 12.365 28.0705 12.5101 28.0104 12.7012C27.9311 12.9538 27.8297 13.2039 27.7091 13.4443C27.6196 13.623 27.6277 13.8366 27.7304 14.0076L28.8073 15.8006L27.9005 16.7296L26.1504 15.6262C25.9834 15.5209 25.7748 15.5127 25.6005 15.6046C25.3662 15.7278 25.1222 15.8318 24.8751 15.9132C24.6887 15.9748 24.5471 16.1316 24.5017 16.3268L24.026 18.3738H22.7435L22.2678 16.3268C22.2224 16.1316 22.0808 15.9747 21.8944 15.9132C21.6473 15.8318 21.4033 15.7278 21.169 15.6046C20.9945 15.5125 20.7859 15.5209 20.6191 15.6262L18.869 16.7296L17.9622 15.8006L19.0392 14.0076C19.142 13.8365 19.15 13.623 19.0604 13.4443C18.9399 13.2039 18.8385 12.9538 18.7592 12.7012C18.6991 12.5101 18.546 12.365 18.3554 12.3185L16.3574 11.8312V10.5173L18.3554 10.0299C18.546 9.98341 18.6991 9.8383 18.7592 9.64724C18.8386 9.39439 18.94 9.14445 19.0604 8.90408C19.15 8.72543 19.1419 8.51179 19.0391 8.3408L17.9624 6.54779L18.8692 5.6187L20.6193 6.72207C20.7862 6.82721 20.9946 6.83563 21.1691 6.74382C21.4039 6.62038 21.6479 6.51647 21.8944 6.43515C22.0809 6.37366 22.2226 6.21675 22.2679 6.02156L22.7437 3.97456H24.0262L24.5019 6.02156C24.5473 6.21683 24.6889 6.37373 24.8754 6.43515C25.1219 6.51647 25.3659 6.62038 25.6007 6.74382C25.7752 6.83563 25.9837 6.82721 26.1505 6.72207L27.9006 5.6187L28.8075 6.54779L27.7305 8.34072C27.6277 8.51179 27.6196 8.72543 27.7091 8.90408Z" fill="#C3D0D5"/>
<path d="M23.3858 8.37875C21.8813 8.37875 20.6572 9.63282 20.6572 11.1743C20.6572 12.7157 21.8812 13.9697 23.3858 13.9697C24.8903 13.9697 26.1143 12.7157 26.1143 11.1743C26.1144 9.63282 24.8903 8.37875 23.3858 8.37875ZM23.3858 12.8211C22.4995 12.8211 21.7784 12.0824 21.7784 11.1743C21.7784 10.2662 22.4994 9.52738 23.3858 9.52738C24.2721 9.52738 24.9932 10.2661 24.9932 11.1743C24.9932 12.0824 24.2721 12.8211 23.3858 12.8211Z" fill="#C3D0D5"/>
</svg>
