<svg width="12" height="12" viewBox="0 0 12 12" xmlns="http://www.w3.org/2000/svg">
<path d="M9.02922 7.87946C8.64906 7.50414 8.17446 7.50414 7.79672 7.87946C7.50857 8.16518 7.22043 8.45091 6.93712 8.74148C6.85963 8.82139 6.79426 8.83834 6.69982 8.78507C6.51337 8.68337 6.31482 8.60104 6.13563 8.48965C5.30024 7.96421 4.60045 7.28863 3.98057 6.52831C3.67305 6.15056 3.39943 5.74619 3.20814 5.29096C3.16939 5.19895 3.17666 5.13841 3.25172 5.06335C3.53987 4.78488 3.82075 4.49916 4.10406 4.21343C4.49875 3.81632 4.49875 3.35141 4.10164 2.95187C3.87645 2.72426 3.65126 2.50149 3.42606 2.27387C3.19361 2.04142 2.96357 1.80654 2.7287 1.57651C2.34853 1.20603 1.87394 1.20603 1.49619 1.57893C1.20562 1.86465 0.927161 2.15765 0.631748 2.43853C0.358128 2.69762 0.220107 3.01483 0.19105 3.38531C0.145043 3.98824 0.29275 4.55727 0.500992 5.11178C0.927161 6.25953 1.5761 7.27894 2.36306 8.21361C3.42606 9.47759 4.69489 10.4776 6.17922 11.1992C6.84753 11.5237 7.54005 11.7731 8.29311 11.8143C8.8113 11.8433 9.26168 11.7126 9.62247 11.3082C9.86946 11.0321 10.1479 10.7803 10.4094 10.5164C10.7969 10.1241 10.7993 9.64951 10.4143 9.26209C9.9542 8.79959 9.49171 8.33952 9.02922 7.87946Z" fill="#C3D0D5"/>
<path d="M8.56622 5.9496L9.45973 5.79705C9.31928 4.97619 8.93186 4.23282 8.34345 3.64199C7.72115 3.01969 6.93419 2.62742 6.06732 2.50635L5.94141 3.40469C6.61214 3.49913 7.22234 3.80181 7.7042 4.28367C8.15942 4.73889 8.45726 5.31519 8.56622 5.9496Z" fill="#C3D0D5"/>
<path d="M9.96387 2.06563C8.93235 1.0341 7.6272 0.38274 6.18646 0.181763L6.06055 1.08011C7.30516 1.25445 8.43354 1.81864 9.32462 2.7073C10.1697 3.55238 10.7242 4.62022 10.9252 5.79461L11.8187 5.64206C11.5838 4.28122 10.9421 3.0463 9.96387 2.06563Z" fill="#C3D0D5"/>
</svg>
